<?xml version="1.0" encoding="utf-8" standalone="no"?>
<!DOCTYPE svg PUBLIC "-//W3C//DTD SVG 1.1//EN"
  "http://www.w3.org/Graphics/SVG/1.1/DTD/svg11.dtd">
<svg height="404.206pt" version="1.1" viewBox="0 0 725.738438 404.206" width="725.738438pt" xmlns="http://www.w3.org/2000/svg" xmlns:xlink="http://www.w3.org/1999/xlink">
 <metadata>
  <rdf:RDF xmlns:cc="http://creativecommons.org/ns#" xmlns:dc="http://purl.org/dc/elements/1.1/" xmlns:rdf="http://www.w3.org/1999/02/22-rdf-syntax-ns#">
   <cc:Work>
    <dc:type rdf:resource="http://purl.org/dc/dcmitype/StillImage"/>
    <dc:date>2021-10-12T14:31:48.034282</dc:date>
    <dc:format>image/svg+xml</dc:format>
    <dc:creator>
     <cc:Agent>
      <dc:title>Matplotlib v3.4.2, https://matplotlib.org/</dc:title>
     </cc:Agent>
    </dc:creator>
   </cc:Work>
  </rdf:RDF>
 </metadata>
 <defs>
  <style type="text/css">*{stroke-linecap:butt;stroke-linejoin:round;}</style>
 </defs>
 <g id="figure_1">
  <g id="patch_1">
   <path d="M 0 404.206 
L 725.738438 404.206 
L 725.738438 0 
L 0 0 
z
" style="fill:none;"/>
  </g>
  <g id="axes_1">
   <g id="patch_2">
    <path d="M 60.338438 351.5175 
L 562.538438 351.5175 
L 562.538438 25.3575 
L 60.338438 25.3575 
z
" style="fill:#ffffff;"/>
   </g>
   <g id="patch_3">
    <path clip-path="url(#p3aa52ba618)" d="M 83.16571 78.575483 
L 129.990885 78.575483 
L 129.990885 40.888929 
L 83.16571 40.888929 
z
" style="fill:#00224e;"/>
   </g>
   <g id="patch_4">
    <path clip-path="url(#p3aa52ba618)" d="M 141.697179 73.176486 
L 188.522354 73.176486 
L 188.522354 40.888929 
L 141.697179 40.888929 
z
" style="fill:#00224e;"/>
   </g>
   <g id="patch_5">
    <path clip-path="url(#p3aa52ba618)" d="M 200.228647 64.421396 
L 247.053822 64.421396 
L 247.053822 40.888929 
L 200.228647 40.888929 
z
" style="fill:#00224e;"/>
   </g>
   <g id="patch_6">
    <path clip-path="url(#p3aa52ba618)" d="M 258.760116 68.297332 
L 305.585291 68.297332 
L 305.585291 40.888929 
L 258.760116 40.888929 
z
" style="fill:#00224e;"/>
   </g>
   <g id="patch_7">
    <path clip-path="url(#p3aa52ba618)" d="M 317.291584 69.213722 
L 364.116759 69.213722 
L 364.116759 40.888929 
L 317.291584 40.888929 
z
" style="fill:#00224e;"/>
   </g>
   <g id="patch_8">
    <path clip-path="url(#p3aa52ba618)" d="M 375.823053 65.629257 
L 422.648228 65.629257 
L 422.648228 40.888929 
L 375.823053 40.888929 
z
" style="fill:#00224e;"/>
   </g>
   <g id="patch_9">
    <path clip-path="url(#p3aa52ba618)" d="M 434.354521 66.774643 
L 481.179696 66.774643 
L 481.179696 40.888929 
L 434.354521 40.888929 
z
" style="fill:#00224e;"/>
   </g>
   <g id="patch_10">
    <path clip-path="url(#p3aa52ba618)" d="M 492.88599 62.244643 
L 539.711165 62.244643 
L 539.711165 40.888929 
L 492.88599 40.888929 
z
" style="fill:#00224e;"/>
   </g>
   <g id="patch_11">
    <path clip-path="url(#p3aa52ba618)" d="M 83.16571 121.972122 
L 129.990885 121.972122 
L 129.990885 78.575483 
L 83.16571 78.575483 
z
" style="fill:#434e6c;"/>
   </g>
   <g id="patch_12">
    <path clip-path="url(#p3aa52ba618)" d="M 141.697179 117.711048 
L 188.522354 117.711048 
L 188.522354 73.176486 
L 141.697179 73.176486 
z
" style="fill:#434e6c;"/>
   </g>
   <g id="patch_13">
    <path clip-path="url(#p3aa52ba618)" d="M 200.228647 120.899318 
L 247.053822 120.899318 
L 247.053822 64.421396 
L 200.228647 64.421396 
z
" style="fill:#434e6c;"/>
   </g>
   <g id="patch_14">
    <path clip-path="url(#p3aa52ba618)" d="M 258.760116 109.409937 
L 305.585291 109.409937 
L 305.585291 68.297332 
L 258.760116 68.297332 
z
" style="fill:#434e6c;"/>
   </g>
   <g id="patch_15">
    <path clip-path="url(#p3aa52ba618)" d="M 317.291584 110.756753 
L 364.116759 110.756753 
L 364.116759 69.213722 
L 317.291584 69.213722 
z
" style="fill:#434e6c;"/>
   </g>
   <g id="patch_16">
    <path clip-path="url(#p3aa52ba618)" d="M 375.823053 145.348094 
L 422.648228 145.348094 
L 422.648228 65.629257 
L 375.823053 65.629257 
z
" style="fill:#434e6c;"/>
   </g>
   <g id="patch_17">
    <path clip-path="url(#p3aa52ba618)" d="M 434.354521 108.590027 
L 481.179696 108.590027 
L 481.179696 66.774643 
L 434.354521 66.774643 
z
" style="fill:#434e6c;"/>
   </g>
   <g id="patch_18">
    <path clip-path="url(#p3aa52ba618)" d="M 492.88599 101.073214 
L 539.711165 101.073214 
L 539.711165 62.244643 
L 492.88599 62.244643 
z
" style="fill:#434e6c;"/>
   </g>
   <g id="patch_19">
    <path clip-path="url(#p3aa52ba618)" d="M 83.16571 198.487248 
L 129.990885 198.487248 
L 129.990885 121.972122 
L 83.16571 121.972122 
z
" style="fill:#7d7c78;"/>
   </g>
   <g id="patch_20">
    <path clip-path="url(#p3aa52ba618)" d="M 141.697179 163.358975 
L 188.522354 163.358975 
L 188.522354 117.711048 
L 141.697179 117.711048 
z
" style="fill:#7d7c78;"/>
   </g>
   <g id="patch_21">
    <path clip-path="url(#p3aa52ba618)" d="M 200.228647 203.262955 
L 247.053822 203.262955 
L 247.053822 120.899318 
L 200.228647 120.899318 
z
" style="fill:#7d7c78;"/>
   </g>
   <g id="patch_22">
    <path clip-path="url(#p3aa52ba618)" d="M 258.760116 168.794811 
L 305.585291 168.794811 
L 305.585291 109.409937 
L 258.760116 109.409937 
z
" style="fill:#7d7c78;"/>
   </g>
   <g id="patch_23">
    <path clip-path="url(#p3aa52ba618)" d="M 317.291584 288.258794 
L 364.116759 288.258794 
L 364.116759 110.756753 
L 317.291584 110.756753 
z
" style="fill:#7d7c78;"/>
   </g>
   <g id="patch_24">
    <path clip-path="url(#p3aa52ba618)" d="M 375.823053 290.124832 
L 422.648228 290.124832 
L 422.648228 145.348094 
L 375.823053 145.348094 
z
" style="fill:#7d7c78;"/>
   </g>
   <g id="patch_25">
    <path clip-path="url(#p3aa52ba618)" d="M 434.354521 261.913104 
L 481.179696 261.913104 
L 481.179696 108.590027 
L 434.354521 108.590027 
z
" style="fill:#7d7c78;"/>
   </g>
   <g id="patch_26">
    <path clip-path="url(#p3aa52ba618)" d="M 492.88599 295.216071 
L 539.711165 295.216071 
L 539.711165 101.073214 
L 492.88599 101.073214 
z
" style="fill:#7d7c78;"/>
   </g>
   <g id="patch_27">
    <path clip-path="url(#p3aa52ba618)" d="M 83.16571 220.185567 
L 129.990885 220.185567 
L 129.990885 198.487248 
L 83.16571 198.487248 
z
" style="fill:#bcae6c;"/>
   </g>
   <g id="patch_28">
    <path clip-path="url(#p3aa52ba618)" d="M 141.697179 177.832707 
L 188.522354 177.832707 
L 188.522354 163.358975 
L 141.697179 163.358975 
z
" style="fill:#bcae6c;"/>
   </g>
   <g id="patch_29">
    <path clip-path="url(#p3aa52ba618)" d="M 200.228647 240.914903 
L 247.053822 240.914903 
L 247.053822 203.262955 
L 200.228647 203.262955 
z
" style="fill:#bcae6c;"/>
   </g>
   <g id="patch_30">
    <path clip-path="url(#p3aa52ba618)" d="M 258.760116 182.499013 
L 305.585291 182.499013 
L 305.585291 168.794811 
L 258.760116 168.794811 
z
" style="fill:#bcae6c;"/>
   </g>
   <g id="patch_31">
    <path clip-path="url(#p3aa52ba618)" d="M 317.291584 299.588711 
L 364.116759 299.588711 
L 364.116759 288.258794 
L 317.291584 288.258794 
z
" style="fill:#bcae6c;"/>
   </g>
   <g id="patch_32">
    <path clip-path="url(#p3aa52ba618)" d="M 375.823053 298.371609 
L 422.648228 298.371609 
L 422.648228 290.124832 
L 375.823053 290.124832 
z
" style="fill:#bcae6c;"/>
   </g>
   <g id="patch_33">
    <path clip-path="url(#p3aa52ba618)" d="M 434.354521 289.790027 
L 481.179696 289.790027 
L 481.179696 261.913104 
L 434.354521 261.913104 
z
" style="fill:#bcae6c;"/>
   </g>
   <g id="patch_34">
    <path clip-path="url(#p3aa52ba618)" d="M 492.88599 306.864643 
L 539.711165 306.864643 
L 539.711165 295.216071 
L 492.88599 295.216071 
z
" style="fill:#bcae6c;"/>
   </g>
   <g id="patch_35">
    <path clip-path="url(#p3aa52ba618)" d="M 83.16571 351.5175 
L 129.990885 351.5175 
L 129.990885 220.185567 
L 83.16571 220.185567 
z
" style="fill:#fee838;"/>
   </g>
   <g id="patch_36">
    <path clip-path="url(#p3aa52ba618)" d="M 141.697179 351.5175 
L 188.522354 351.5175 
L 188.522354 177.832707 
L 141.697179 177.832707 
z
" style="fill:#fee838;"/>
   </g>
   <g id="patch_37">
    <path clip-path="url(#p3aa52ba618)" d="M 200.228647 351.5175 
L 247.053822 351.5175 
L 247.053822 240.914903 
L 200.228647 240.914903 
z
" style="fill:#fee838;"/>
   </g>
   <g id="patch_38">
    <path clip-path="url(#p3aa52ba618)" d="M 258.760116 351.5175 
L 305.585291 351.5175 
L 305.585291 182.499013 
L 258.760116 182.499013 
z
" style="fill:#fee838;"/>
   </g>
   <g id="patch_39">
    <path clip-path="url(#p3aa52ba618)" d="M 317.291584 351.5175 
L 364.116759 351.5175 
L 364.116759 299.588711 
L 317.291584 299.588711 
z
" style="fill:#fee838;"/>
   </g>
   <g id="patch_40">
    <path clip-path="url(#p3aa52ba618)" d="M 375.823053 351.5175 
L 422.648228 351.5175 
L 422.648228 298.371609 
L 375.823053 298.371609 
z
" style="fill:#fee838;"/>
   </g>
   <g id="patch_41">
    <path clip-path="url(#p3aa52ba618)" d="M 434.354521 351.5175 
L 481.179696 351.5175 
L 481.179696 289.790027 
L 434.354521 289.790027 
z
" style="fill:#fee838;"/>
   </g>
   <g id="patch_42">
    <path clip-path="url(#p3aa52ba618)" d="M 492.88599 351.5175 
L 539.711165 351.5175 
L 539.711165 306.864643 
L 492.88599 306.864643 
z
" style="fill:#fee838;"/>
   </g>
   <g id="matplotlib.axis_1">
    <g id="xtick_1">
     <g id="line2d_1">
      <defs>
       <path d="M 0 0 
L 0 3.5 
" id="md0fd8ece0b" style="stroke:#000000;stroke-width:0.8;"/>
      </defs>
      <g>
       <use style="stroke:#000000;stroke-width:0.8;" x="106.578298" xlink:href="#md0fd8ece0b" y="351.5175"/>
      </g>
     </g>
     <g id="text_1">
      <!-- Morning -->
      <g transform="translate(82.287673 367.635625)scale(0.12 -0.12)">
       <defs>
        <path d="M 628 4666 
L 1569 4666 
L 2759 1491 
L 3956 4666 
L 4897 4666 
L 4897 0 
L 4281 0 
L 4281 4097 
L 3078 897 
L 2444 897 
L 1241 4097 
L 1241 0 
L 628 0 
L 628 4666 
z
" id="DejaVuSans-4d" transform="scale(0.015625)"/>
        <path d="M 1959 3097 
Q 1497 3097 1228 2736 
Q 959 2375 959 1747 
Q 959 1119 1226 758 
Q 1494 397 1959 397 
Q 2419 397 2687 759 
Q 2956 1122 2956 1747 
Q 2956 2369 2687 2733 
Q 2419 3097 1959 3097 
z
M 1959 3584 
Q 2709 3584 3137 3096 
Q 3566 2609 3566 1747 
Q 3566 888 3137 398 
Q 2709 -91 1959 -91 
Q 1206 -91 779 398 
Q 353 888 353 1747 
Q 353 2609 779 3096 
Q 1206 3584 1959 3584 
z
" id="DejaVuSans-6f" transform="scale(0.015625)"/>
        <path d="M 2631 2963 
Q 2534 3019 2420 3045 
Q 2306 3072 2169 3072 
Q 1681 3072 1420 2755 
Q 1159 2438 1159 1844 
L 1159 0 
L 581 0 
L 581 3500 
L 1159 3500 
L 1159 2956 
Q 1341 3275 1631 3429 
Q 1922 3584 2338 3584 
Q 2397 3584 2469 3576 
Q 2541 3569 2628 3553 
L 2631 2963 
z
" id="DejaVuSans-72" transform="scale(0.015625)"/>
        <path d="M 3513 2113 
L 3513 0 
L 2938 0 
L 2938 2094 
Q 2938 2591 2744 2837 
Q 2550 3084 2163 3084 
Q 1697 3084 1428 2787 
Q 1159 2491 1159 1978 
L 1159 0 
L 581 0 
L 581 3500 
L 1159 3500 
L 1159 2956 
Q 1366 3272 1645 3428 
Q 1925 3584 2291 3584 
Q 2894 3584 3203 3211 
Q 3513 2838 3513 2113 
z
" id="DejaVuSans-6e" transform="scale(0.015625)"/>
        <path d="M 603 3500 
L 1178 3500 
L 1178 0 
L 603 0 
L 603 3500 
z
M 603 4863 
L 1178 4863 
L 1178 4134 
L 603 4134 
L 603 4863 
z
" id="DejaVuSans-69" transform="scale(0.015625)"/>
        <path d="M 2906 1791 
Q 2906 2416 2648 2759 
Q 2391 3103 1925 3103 
Q 1463 3103 1205 2759 
Q 947 2416 947 1791 
Q 947 1169 1205 825 
Q 1463 481 1925 481 
Q 2391 481 2648 825 
Q 2906 1169 2906 1791 
z
M 3481 434 
Q 3481 -459 3084 -895 
Q 2688 -1331 1869 -1331 
Q 1566 -1331 1297 -1286 
Q 1028 -1241 775 -1147 
L 775 -588 
Q 1028 -725 1275 -790 
Q 1522 -856 1778 -856 
Q 2344 -856 2625 -561 
Q 2906 -266 2906 331 
L 2906 616 
Q 2728 306 2450 153 
Q 2172 0 1784 0 
Q 1141 0 747 490 
Q 353 981 353 1791 
Q 353 2603 747 3093 
Q 1141 3584 1784 3584 
Q 2172 3584 2450 3431 
Q 2728 3278 2906 2969 
L 2906 3500 
L 3481 3500 
L 3481 434 
z
" id="DejaVuSans-67" transform="scale(0.015625)"/>
       </defs>
       <use xlink:href="#DejaVuSans-4d"/>
       <use x="86.279297" xlink:href="#DejaVuSans-6f"/>
       <use x="147.460938" xlink:href="#DejaVuSans-72"/>
       <use x="186.824219" xlink:href="#DejaVuSans-6e"/>
       <use x="250.203125" xlink:href="#DejaVuSans-69"/>
       <use x="277.986328" xlink:href="#DejaVuSans-6e"/>
       <use x="341.365234" xlink:href="#DejaVuSans-67"/>
      </g>
      <!-- (Week) -->
      <g transform="translate(85.458298 381.073)scale(0.12 -0.12)">
       <defs>
        <path d="M 1984 4856 
Q 1566 4138 1362 3434 
Q 1159 2731 1159 2009 
Q 1159 1288 1364 580 
Q 1569 -128 1984 -844 
L 1484 -844 
Q 1016 -109 783 600 
Q 550 1309 550 2009 
Q 550 2706 781 3412 
Q 1013 4119 1484 4856 
L 1984 4856 
z
" id="DejaVuSans-28" transform="scale(0.015625)"/>
        <path d="M 213 4666 
L 850 4666 
L 1831 722 
L 2809 4666 
L 3519 4666 
L 4500 722 
L 5478 4666 
L 6119 4666 
L 4947 0 
L 4153 0 
L 3169 4050 
L 2175 0 
L 1381 0 
L 213 4666 
z
" id="DejaVuSans-57" transform="scale(0.015625)"/>
        <path d="M 3597 1894 
L 3597 1613 
L 953 1613 
Q 991 1019 1311 708 
Q 1631 397 2203 397 
Q 2534 397 2845 478 
Q 3156 559 3463 722 
L 3463 178 
Q 3153 47 2828 -22 
Q 2503 -91 2169 -91 
Q 1331 -91 842 396 
Q 353 884 353 1716 
Q 353 2575 817 3079 
Q 1281 3584 2069 3584 
Q 2775 3584 3186 3129 
Q 3597 2675 3597 1894 
z
M 3022 2063 
Q 3016 2534 2758 2815 
Q 2500 3097 2075 3097 
Q 1594 3097 1305 2825 
Q 1016 2553 972 2059 
L 3022 2063 
z
" id="DejaVuSans-65" transform="scale(0.015625)"/>
        <path d="M 581 4863 
L 1159 4863 
L 1159 1991 
L 2875 3500 
L 3609 3500 
L 1753 1863 
L 3688 0 
L 2938 0 
L 1159 1709 
L 1159 0 
L 581 0 
L 581 4863 
z
" id="DejaVuSans-6b" transform="scale(0.015625)"/>
        <path d="M 513 4856 
L 1013 4856 
Q 1481 4119 1714 3412 
Q 1947 2706 1947 2009 
Q 1947 1309 1714 600 
Q 1481 -109 1013 -844 
L 513 -844 
Q 928 -128 1133 580 
Q 1338 1288 1338 2009 
Q 1338 2731 1133 3434 
Q 928 4138 513 4856 
z
" id="DejaVuSans-29" transform="scale(0.015625)"/>
       </defs>
       <use xlink:href="#DejaVuSans-28"/>
       <use x="39.013672" xlink:href="#DejaVuSans-57"/>
       <use x="132.015625" xlink:href="#DejaVuSans-65"/>
       <use x="193.539062" xlink:href="#DejaVuSans-65"/>
       <use x="255.0625" xlink:href="#DejaVuSans-6b"/>
       <use x="312.972656" xlink:href="#DejaVuSans-29"/>
      </g>
      <!-- 2015 -->
      <g transform="translate(91.308298 394.510375)scale(0.12 -0.12)">
       <defs>
        <path d="M 1228 531 
L 3431 531 
L 3431 0 
L 469 0 
L 469 531 
Q 828 903 1448 1529 
Q 2069 2156 2228 2338 
Q 2531 2678 2651 2914 
Q 2772 3150 2772 3378 
Q 2772 3750 2511 3984 
Q 2250 4219 1831 4219 
Q 1534 4219 1204 4116 
Q 875 4013 500 3803 
L 500 4441 
Q 881 4594 1212 4672 
Q 1544 4750 1819 4750 
Q 2544 4750 2975 4387 
Q 3406 4025 3406 3419 
Q 3406 3131 3298 2873 
Q 3191 2616 2906 2266 
Q 2828 2175 2409 1742 
Q 1991 1309 1228 531 
z
" id="DejaVuSans-32" transform="scale(0.015625)"/>
        <path d="M 2034 4250 
Q 1547 4250 1301 3770 
Q 1056 3291 1056 2328 
Q 1056 1369 1301 889 
Q 1547 409 2034 409 
Q 2525 409 2770 889 
Q 3016 1369 3016 2328 
Q 3016 3291 2770 3770 
Q 2525 4250 2034 4250 
z
M 2034 4750 
Q 2819 4750 3233 4129 
Q 3647 3509 3647 2328 
Q 3647 1150 3233 529 
Q 2819 -91 2034 -91 
Q 1250 -91 836 529 
Q 422 1150 422 2328 
Q 422 3509 836 4129 
Q 1250 4750 2034 4750 
z
" id="DejaVuSans-30" transform="scale(0.015625)"/>
        <path d="M 794 531 
L 1825 531 
L 1825 4091 
L 703 3866 
L 703 4441 
L 1819 4666 
L 2450 4666 
L 2450 531 
L 3481 531 
L 3481 0 
L 794 0 
L 794 531 
z
" id="DejaVuSans-31" transform="scale(0.015625)"/>
        <path d="M 691 4666 
L 3169 4666 
L 3169 4134 
L 1269 4134 
L 1269 2991 
Q 1406 3038 1543 3061 
Q 1681 3084 1819 3084 
Q 2600 3084 3056 2656 
Q 3513 2228 3513 1497 
Q 3513 744 3044 326 
Q 2575 -91 1722 -91 
Q 1428 -91 1123 -41 
Q 819 9 494 109 
L 494 744 
Q 775 591 1075 516 
Q 1375 441 1709 441 
Q 2250 441 2565 725 
Q 2881 1009 2881 1497 
Q 2881 1984 2565 2268 
Q 2250 2553 1709 2553 
Q 1456 2553 1204 2497 
Q 953 2441 691 2322 
L 691 4666 
z
" id="DejaVuSans-35" transform="scale(0.015625)"/>
       </defs>
       <use xlink:href="#DejaVuSans-32"/>
       <use x="63.623047" xlink:href="#DejaVuSans-30"/>
       <use x="127.246094" xlink:href="#DejaVuSans-31"/>
       <use x="190.869141" xlink:href="#DejaVuSans-35"/>
      </g>
     </g>
    </g>
    <g id="xtick_2">
     <g id="line2d_2">
      <g>
       <use style="stroke:#000000;stroke-width:0.8;" x="165.109766" xlink:href="#md0fd8ece0b" y="351.5175"/>
      </g>
     </g>
     <g id="text_2">
      <!-- Evening -->
      <g transform="translate(140.994454 367.635625)scale(0.12 -0.12)">
       <defs>
        <path d="M 628 4666 
L 3578 4666 
L 3578 4134 
L 1259 4134 
L 1259 2753 
L 3481 2753 
L 3481 2222 
L 1259 2222 
L 1259 531 
L 3634 531 
L 3634 0 
L 628 0 
L 628 4666 
z
" id="DejaVuSans-45" transform="scale(0.015625)"/>
        <path d="M 191 3500 
L 800 3500 
L 1894 563 
L 2988 3500 
L 3597 3500 
L 2284 0 
L 1503 0 
L 191 3500 
z
" id="DejaVuSans-76" transform="scale(0.015625)"/>
       </defs>
       <use xlink:href="#DejaVuSans-45"/>
       <use x="63.183594" xlink:href="#DejaVuSans-76"/>
       <use x="122.363281" xlink:href="#DejaVuSans-65"/>
       <use x="183.886719" xlink:href="#DejaVuSans-6e"/>
       <use x="247.265625" xlink:href="#DejaVuSans-69"/>
       <use x="275.048828" xlink:href="#DejaVuSans-6e"/>
       <use x="338.427734" xlink:href="#DejaVuSans-67"/>
      </g>
      <!-- (Week) -->
      <g transform="translate(143.989766 381.073)scale(0.12 -0.12)">
       <use xlink:href="#DejaVuSans-28"/>
       <use x="39.013672" xlink:href="#DejaVuSans-57"/>
       <use x="132.015625" xlink:href="#DejaVuSans-65"/>
       <use x="193.539062" xlink:href="#DejaVuSans-65"/>
       <use x="255.0625" xlink:href="#DejaVuSans-6b"/>
       <use x="312.972656" xlink:href="#DejaVuSans-29"/>
      </g>
     </g>
    </g>
    <g id="xtick_3">
     <g id="line2d_3">
      <g>
       <use style="stroke:#000000;stroke-width:0.8;" x="223.641235" xlink:href="#md0fd8ece0b" y="351.5175"/>
      </g>
     </g>
     <g id="text_3">
      <!-- Morning -->
      <g transform="translate(199.35061 367.635625)scale(0.12 -0.12)">
       <use xlink:href="#DejaVuSans-4d"/>
       <use x="86.279297" xlink:href="#DejaVuSans-6f"/>
       <use x="147.460938" xlink:href="#DejaVuSans-72"/>
       <use x="186.824219" xlink:href="#DejaVuSans-6e"/>
       <use x="250.203125" xlink:href="#DejaVuSans-69"/>
       <use x="277.986328" xlink:href="#DejaVuSans-6e"/>
       <use x="341.365234" xlink:href="#DejaVuSans-67"/>
      </g>
      <!-- (Sat.) -->
      <g transform="translate(207.21436 381.073)scale(0.12 -0.12)">
       <defs>
        <path d="M 3425 4513 
L 3425 3897 
Q 3066 4069 2747 4153 
Q 2428 4238 2131 4238 
Q 1616 4238 1336 4038 
Q 1056 3838 1056 3469 
Q 1056 3159 1242 3001 
Q 1428 2844 1947 2747 
L 2328 2669 
Q 3034 2534 3370 2195 
Q 3706 1856 3706 1288 
Q 3706 609 3251 259 
Q 2797 -91 1919 -91 
Q 1588 -91 1214 -16 
Q 841 59 441 206 
L 441 856 
Q 825 641 1194 531 
Q 1563 422 1919 422 
Q 2459 422 2753 634 
Q 3047 847 3047 1241 
Q 3047 1584 2836 1778 
Q 2625 1972 2144 2069 
L 1759 2144 
Q 1053 2284 737 2584 
Q 422 2884 422 3419 
Q 422 4038 858 4394 
Q 1294 4750 2059 4750 
Q 2388 4750 2728 4690 
Q 3069 4631 3425 4513 
z
" id="DejaVuSans-53" transform="scale(0.015625)"/>
        <path d="M 2194 1759 
Q 1497 1759 1228 1600 
Q 959 1441 959 1056 
Q 959 750 1161 570 
Q 1363 391 1709 391 
Q 2188 391 2477 730 
Q 2766 1069 2766 1631 
L 2766 1759 
L 2194 1759 
z
M 3341 1997 
L 3341 0 
L 2766 0 
L 2766 531 
Q 2569 213 2275 61 
Q 1981 -91 1556 -91 
Q 1019 -91 701 211 
Q 384 513 384 1019 
Q 384 1609 779 1909 
Q 1175 2209 1959 2209 
L 2766 2209 
L 2766 2266 
Q 2766 2663 2505 2880 
Q 2244 3097 1772 3097 
Q 1472 3097 1187 3025 
Q 903 2953 641 2809 
L 641 3341 
Q 956 3463 1253 3523 
Q 1550 3584 1831 3584 
Q 2591 3584 2966 3190 
Q 3341 2797 3341 1997 
z
" id="DejaVuSans-61" transform="scale(0.015625)"/>
        <path d="M 1172 4494 
L 1172 3500 
L 2356 3500 
L 2356 3053 
L 1172 3053 
L 1172 1153 
Q 1172 725 1289 603 
Q 1406 481 1766 481 
L 2356 481 
L 2356 0 
L 1766 0 
Q 1100 0 847 248 
Q 594 497 594 1153 
L 594 3053 
L 172 3053 
L 172 3500 
L 594 3500 
L 594 4494 
L 1172 4494 
z
" id="DejaVuSans-74" transform="scale(0.015625)"/>
        <path d="M 684 794 
L 1344 794 
L 1344 0 
L 684 0 
L 684 794 
z
" id="DejaVuSans-2e" transform="scale(0.015625)"/>
       </defs>
       <use xlink:href="#DejaVuSans-28"/>
       <use x="39.013672" xlink:href="#DejaVuSans-53"/>
       <use x="102.490234" xlink:href="#DejaVuSans-61"/>
       <use x="163.769531" xlink:href="#DejaVuSans-74"/>
       <use x="202.978516" xlink:href="#DejaVuSans-2e"/>
       <use x="234.765625" xlink:href="#DejaVuSans-29"/>
      </g>
     </g>
    </g>
    <g id="xtick_4">
     <g id="line2d_4">
      <g>
       <use style="stroke:#000000;stroke-width:0.8;" x="282.172703" xlink:href="#md0fd8ece0b" y="351.5175"/>
      </g>
     </g>
     <g id="text_4">
      <!-- Evening -->
      <g transform="translate(258.057391 367.635625)scale(0.12 -0.12)">
       <use xlink:href="#DejaVuSans-45"/>
       <use x="63.183594" xlink:href="#DejaVuSans-76"/>
       <use x="122.363281" xlink:href="#DejaVuSans-65"/>
       <use x="183.886719" xlink:href="#DejaVuSans-6e"/>
       <use x="247.265625" xlink:href="#DejaVuSans-69"/>
       <use x="275.048828" xlink:href="#DejaVuSans-6e"/>
       <use x="338.427734" xlink:href="#DejaVuSans-67"/>
      </g>
      <!-- (Sat.) -->
      <g transform="translate(265.745828 381.073)scale(0.12 -0.12)">
       <use xlink:href="#DejaVuSans-28"/>
       <use x="39.013672" xlink:href="#DejaVuSans-53"/>
       <use x="102.490234" xlink:href="#DejaVuSans-61"/>
       <use x="163.769531" xlink:href="#DejaVuSans-74"/>
       <use x="202.978516" xlink:href="#DejaVuSans-2e"/>
       <use x="234.765625" xlink:href="#DejaVuSans-29"/>
      </g>
     </g>
    </g>
    <g id="xtick_5">
     <g id="line2d_5">
      <g>
       <use style="stroke:#000000;stroke-width:0.8;" x="340.704172" xlink:href="#md0fd8ece0b" y="351.5175"/>
      </g>
     </g>
     <g id="text_5">
      <!-- Morning -->
      <g transform="translate(316.413547 367.635625)scale(0.12 -0.12)">
       <use xlink:href="#DejaVuSans-4d"/>
       <use x="86.279297" xlink:href="#DejaVuSans-6f"/>
       <use x="147.460938" xlink:href="#DejaVuSans-72"/>
       <use x="186.824219" xlink:href="#DejaVuSans-6e"/>
       <use x="250.203125" xlink:href="#DejaVuSans-69"/>
       <use x="277.986328" xlink:href="#DejaVuSans-6e"/>
       <use x="341.365234" xlink:href="#DejaVuSans-67"/>
      </g>
      <!-- (Week) -->
      <g transform="translate(319.584172 381.073)scale(0.12 -0.12)">
       <use xlink:href="#DejaVuSans-28"/>
       <use x="39.013672" xlink:href="#DejaVuSans-57"/>
       <use x="132.015625" xlink:href="#DejaVuSans-65"/>
       <use x="193.539062" xlink:href="#DejaVuSans-65"/>
       <use x="255.0625" xlink:href="#DejaVuSans-6b"/>
       <use x="312.972656" xlink:href="#DejaVuSans-29"/>
      </g>
      <!-- 2016 -->
      <g transform="translate(325.434172 394.510375)scale(0.12 -0.12)">
       <defs>
        <path d="M 2113 2584 
Q 1688 2584 1439 2293 
Q 1191 2003 1191 1497 
Q 1191 994 1439 701 
Q 1688 409 2113 409 
Q 2538 409 2786 701 
Q 3034 994 3034 1497 
Q 3034 2003 2786 2293 
Q 2538 2584 2113 2584 
z
M 3366 4563 
L 3366 3988 
Q 3128 4100 2886 4159 
Q 2644 4219 2406 4219 
Q 1781 4219 1451 3797 
Q 1122 3375 1075 2522 
Q 1259 2794 1537 2939 
Q 1816 3084 2150 3084 
Q 2853 3084 3261 2657 
Q 3669 2231 3669 1497 
Q 3669 778 3244 343 
Q 2819 -91 2113 -91 
Q 1303 -91 875 529 
Q 447 1150 447 2328 
Q 447 3434 972 4092 
Q 1497 4750 2381 4750 
Q 2619 4750 2861 4703 
Q 3103 4656 3366 4563 
z
" id="DejaVuSans-36" transform="scale(0.015625)"/>
       </defs>
       <use xlink:href="#DejaVuSans-32"/>
       <use x="63.623047" xlink:href="#DejaVuSans-30"/>
       <use x="127.246094" xlink:href="#DejaVuSans-31"/>
       <use x="190.869141" xlink:href="#DejaVuSans-36"/>
      </g>
     </g>
    </g>
    <g id="xtick_6">
     <g id="line2d_6">
      <g>
       <use style="stroke:#000000;stroke-width:0.8;" x="399.23564" xlink:href="#md0fd8ece0b" y="351.5175"/>
      </g>
     </g>
     <g id="text_6">
      <!-- Evening -->
      <g transform="translate(375.120328 367.635625)scale(0.12 -0.12)">
       <use xlink:href="#DejaVuSans-45"/>
       <use x="63.183594" xlink:href="#DejaVuSans-76"/>
       <use x="122.363281" xlink:href="#DejaVuSans-65"/>
       <use x="183.886719" xlink:href="#DejaVuSans-6e"/>
       <use x="247.265625" xlink:href="#DejaVuSans-69"/>
       <use x="275.048828" xlink:href="#DejaVuSans-6e"/>
       <use x="338.427734" xlink:href="#DejaVuSans-67"/>
      </g>
      <!-- (Week) -->
      <g transform="translate(378.11564 381.073)scale(0.12 -0.12)">
       <use xlink:href="#DejaVuSans-28"/>
       <use x="39.013672" xlink:href="#DejaVuSans-57"/>
       <use x="132.015625" xlink:href="#DejaVuSans-65"/>
       <use x="193.539062" xlink:href="#DejaVuSans-65"/>
       <use x="255.0625" xlink:href="#DejaVuSans-6b"/>
       <use x="312.972656" xlink:href="#DejaVuSans-29"/>
      </g>
     </g>
    </g>
    <g id="xtick_7">
     <g id="line2d_7">
      <g>
       <use style="stroke:#000000;stroke-width:0.8;" x="457.767109" xlink:href="#md0fd8ece0b" y="351.5175"/>
      </g>
     </g>
     <g id="text_7">
      <!-- Morning -->
      <g transform="translate(433.476484 367.635625)scale(0.12 -0.12)">
       <use xlink:href="#DejaVuSans-4d"/>
       <use x="86.279297" xlink:href="#DejaVuSans-6f"/>
       <use x="147.460938" xlink:href="#DejaVuSans-72"/>
       <use x="186.824219" xlink:href="#DejaVuSans-6e"/>
       <use x="250.203125" xlink:href="#DejaVuSans-69"/>
       <use x="277.986328" xlink:href="#DejaVuSans-6e"/>
       <use x="341.365234" xlink:href="#DejaVuSans-67"/>
      </g>
      <!-- (Sat.) -->
      <g transform="translate(441.340234 381.073)scale(0.12 -0.12)">
       <use xlink:href="#DejaVuSans-28"/>
       <use x="39.013672" xlink:href="#DejaVuSans-53"/>
       <use x="102.490234" xlink:href="#DejaVuSans-61"/>
       <use x="163.769531" xlink:href="#DejaVuSans-74"/>
       <use x="202.978516" xlink:href="#DejaVuSans-2e"/>
       <use x="234.765625" xlink:href="#DejaVuSans-29"/>
      </g>
     </g>
    </g>
    <g id="xtick_8">
     <g id="line2d_8">
      <g>
       <use style="stroke:#000000;stroke-width:0.8;" x="516.298577" xlink:href="#md0fd8ece0b" y="351.5175"/>
      </g>
     </g>
     <g id="text_8">
      <!-- Evening -->
      <g transform="translate(492.183265 367.635625)scale(0.12 -0.12)">
       <use xlink:href="#DejaVuSans-45"/>
       <use x="63.183594" xlink:href="#DejaVuSans-76"/>
       <use x="122.363281" xlink:href="#DejaVuSans-65"/>
       <use x="183.886719" xlink:href="#DejaVuSans-6e"/>
       <use x="247.265625" xlink:href="#DejaVuSans-69"/>
       <use x="275.048828" xlink:href="#DejaVuSans-6e"/>
       <use x="338.427734" xlink:href="#DejaVuSans-67"/>
      </g>
      <!-- (Sat.) -->
      <g transform="translate(499.871702 381.073)scale(0.12 -0.12)">
       <use xlink:href="#DejaVuSans-28"/>
       <use x="39.013672" xlink:href="#DejaVuSans-53"/>
       <use x="102.490234" xlink:href="#DejaVuSans-61"/>
       <use x="163.769531" xlink:href="#DejaVuSans-74"/>
       <use x="202.978516" xlink:href="#DejaVuSans-2e"/>
       <use x="234.765625" xlink:href="#DejaVuSans-29"/>
      </g>
     </g>
    </g>
   </g>
   <g id="matplotlib.axis_2">
    <g id="ytick_1">
     <g id="line2d_9">
      <path clip-path="url(#p3aa52ba618)" d="M 60.338438 351.5175 
L 562.538438 351.5175 
" style="fill:none;stroke:#bfbfbf;stroke-dasharray:2.96,1.28;stroke-dashoffset:0;stroke-width:0.8;"/>
     </g>
     <g id="line2d_10">
      <defs>
       <path d="M 0 0 
L -3.5 0 
" id="mb5cc354341" style="stroke:#000000;stroke-width:0.8;"/>
      </defs>
      <g>
       <use style="stroke:#000000;stroke-width:0.8;" x="60.338438" xlink:href="#mb5cc354341" y="351.5175"/>
      </g>
     </g>
     <g id="text_9">
      <!-- 0% -->
      <g transform="translate(37.474375 355.316719)scale(0.1 -0.1)">
       <defs>
        <path d="M 4653 2053 
Q 4381 2053 4226 1822 
Q 4072 1591 4072 1178 
Q 4072 772 4226 539 
Q 4381 306 4653 306 
Q 4919 306 5073 539 
Q 5228 772 5228 1178 
Q 5228 1588 5073 1820 
Q 4919 2053 4653 2053 
z
M 4653 2450 
Q 5147 2450 5437 2106 
Q 5728 1763 5728 1178 
Q 5728 594 5436 251 
Q 5144 -91 4653 -91 
Q 4153 -91 3862 251 
Q 3572 594 3572 1178 
Q 3572 1766 3864 2108 
Q 4156 2450 4653 2450 
z
M 1428 4353 
Q 1159 4353 1004 4120 
Q 850 3888 850 3481 
Q 850 3069 1003 2837 
Q 1156 2606 1428 2606 
Q 1700 2606 1854 2837 
Q 2009 3069 2009 3481 
Q 2009 3884 1853 4118 
Q 1697 4353 1428 4353 
z
M 4250 4750 
L 4750 4750 
L 1831 -91 
L 1331 -91 
L 4250 4750 
z
M 1428 4750 
Q 1922 4750 2215 4408 
Q 2509 4066 2509 3481 
Q 2509 2891 2217 2550 
Q 1925 2209 1428 2209 
Q 931 2209 642 2551 
Q 353 2894 353 3481 
Q 353 4063 643 4406 
Q 934 4750 1428 4750 
z
" id="DejaVuSans-25" transform="scale(0.015625)"/>
       </defs>
       <use xlink:href="#DejaVuSans-30"/>
       <use x="63.623047" xlink:href="#DejaVuSans-25"/>
      </g>
     </g>
    </g>
    <g id="ytick_2">
     <g id="line2d_11">
      <path clip-path="url(#p3aa52ba618)" d="M 60.338438 320.454643 
L 562.538438 320.454643 
" style="fill:none;stroke:#bfbfbf;stroke-dasharray:2.96,1.28;stroke-dashoffset:0;stroke-width:0.8;"/>
     </g>
     <g id="line2d_12">
      <g>
       <use style="stroke:#000000;stroke-width:0.8;" x="60.338438" xlink:href="#mb5cc354341" y="320.454643"/>
      </g>
     </g>
     <g id="text_10">
      <!-- 10% -->
      <g transform="translate(31.111875 324.253862)scale(0.1 -0.1)">
       <use xlink:href="#DejaVuSans-31"/>
       <use x="63.623047" xlink:href="#DejaVuSans-30"/>
       <use x="127.246094" xlink:href="#DejaVuSans-25"/>
      </g>
     </g>
    </g>
    <g id="ytick_3">
     <g id="line2d_13">
      <path clip-path="url(#p3aa52ba618)" d="M 60.338438 289.391786 
L 562.538438 289.391786 
" style="fill:none;stroke:#bfbfbf;stroke-dasharray:2.96,1.28;stroke-dashoffset:0;stroke-width:0.8;"/>
     </g>
     <g id="line2d_14">
      <g>
       <use style="stroke:#000000;stroke-width:0.8;" x="60.338438" xlink:href="#mb5cc354341" y="289.391786"/>
      </g>
     </g>
     <g id="text_11">
      <!-- 20% -->
      <g transform="translate(31.111875 293.191004)scale(0.1 -0.1)">
       <use xlink:href="#DejaVuSans-32"/>
       <use x="63.623047" xlink:href="#DejaVuSans-30"/>
       <use x="127.246094" xlink:href="#DejaVuSans-25"/>
      </g>
     </g>
    </g>
    <g id="ytick_4">
     <g id="line2d_15">
      <path clip-path="url(#p3aa52ba618)" d="M 60.338438 258.328929 
L 562.538438 258.328929 
" style="fill:none;stroke:#bfbfbf;stroke-dasharray:2.96,1.28;stroke-dashoffset:0;stroke-width:0.8;"/>
     </g>
     <g id="line2d_16">
      <g>
       <use style="stroke:#000000;stroke-width:0.8;" x="60.338438" xlink:href="#mb5cc354341" y="258.328929"/>
      </g>
     </g>
     <g id="text_12">
      <!-- 30% -->
      <g transform="translate(31.111875 262.128147)scale(0.1 -0.1)">
       <defs>
        <path d="M 2597 2516 
Q 3050 2419 3304 2112 
Q 3559 1806 3559 1356 
Q 3559 666 3084 287 
Q 2609 -91 1734 -91 
Q 1441 -91 1130 -33 
Q 819 25 488 141 
L 488 750 
Q 750 597 1062 519 
Q 1375 441 1716 441 
Q 2309 441 2620 675 
Q 2931 909 2931 1356 
Q 2931 1769 2642 2001 
Q 2353 2234 1838 2234 
L 1294 2234 
L 1294 2753 
L 1863 2753 
Q 2328 2753 2575 2939 
Q 2822 3125 2822 3475 
Q 2822 3834 2567 4026 
Q 2313 4219 1838 4219 
Q 1578 4219 1281 4162 
Q 984 4106 628 3988 
L 628 4550 
Q 988 4650 1302 4700 
Q 1616 4750 1894 4750 
Q 2613 4750 3031 4423 
Q 3450 4097 3450 3541 
Q 3450 3153 3228 2886 
Q 3006 2619 2597 2516 
z
" id="DejaVuSans-33" transform="scale(0.015625)"/>
       </defs>
       <use xlink:href="#DejaVuSans-33"/>
       <use x="63.623047" xlink:href="#DejaVuSans-30"/>
       <use x="127.246094" xlink:href="#DejaVuSans-25"/>
      </g>
     </g>
    </g>
    <g id="ytick_5">
     <g id="line2d_17">
      <path clip-path="url(#p3aa52ba618)" d="M 60.338438 227.266071 
L 562.538438 227.266071 
" style="fill:none;stroke:#bfbfbf;stroke-dasharray:2.96,1.28;stroke-dashoffset:0;stroke-width:0.8;"/>
     </g>
     <g id="line2d_18">
      <g>
       <use style="stroke:#000000;stroke-width:0.8;" x="60.338438" xlink:href="#mb5cc354341" y="227.266071"/>
      </g>
     </g>
     <g id="text_13">
      <!-- 40% -->
      <g transform="translate(31.111875 231.06529)scale(0.1 -0.1)">
       <defs>
        <path d="M 2419 4116 
L 825 1625 
L 2419 1625 
L 2419 4116 
z
M 2253 4666 
L 3047 4666 
L 3047 1625 
L 3713 1625 
L 3713 1100 
L 3047 1100 
L 3047 0 
L 2419 0 
L 2419 1100 
L 313 1100 
L 313 1709 
L 2253 4666 
z
" id="DejaVuSans-34" transform="scale(0.015625)"/>
       </defs>
       <use xlink:href="#DejaVuSans-34"/>
       <use x="63.623047" xlink:href="#DejaVuSans-30"/>
       <use x="127.246094" xlink:href="#DejaVuSans-25"/>
      </g>
     </g>
    </g>
    <g id="ytick_6">
     <g id="line2d_19">
      <path clip-path="url(#p3aa52ba618)" d="M 60.338438 196.203214 
L 562.538438 196.203214 
" style="fill:none;stroke:#bfbfbf;stroke-dasharray:2.96,1.28;stroke-dashoffset:0;stroke-width:0.8;"/>
     </g>
     <g id="line2d_20">
      <g>
       <use style="stroke:#000000;stroke-width:0.8;" x="60.338438" xlink:href="#mb5cc354341" y="196.203214"/>
      </g>
     </g>
     <g id="text_14">
      <!-- 50% -->
      <g transform="translate(31.111875 200.002433)scale(0.1 -0.1)">
       <use xlink:href="#DejaVuSans-35"/>
       <use x="63.623047" xlink:href="#DejaVuSans-30"/>
       <use x="127.246094" xlink:href="#DejaVuSans-25"/>
      </g>
     </g>
    </g>
    <g id="ytick_7">
     <g id="line2d_21">
      <path clip-path="url(#p3aa52ba618)" d="M 60.338438 165.140357 
L 562.538438 165.140357 
" style="fill:none;stroke:#bfbfbf;stroke-dasharray:2.96,1.28;stroke-dashoffset:0;stroke-width:0.8;"/>
     </g>
     <g id="line2d_22">
      <g>
       <use style="stroke:#000000;stroke-width:0.8;" x="60.338438" xlink:href="#mb5cc354341" y="165.140357"/>
      </g>
     </g>
     <g id="text_15">
      <!-- 60% -->
      <g transform="translate(31.111875 168.939576)scale(0.1 -0.1)">
       <use xlink:href="#DejaVuSans-36"/>
       <use x="63.623047" xlink:href="#DejaVuSans-30"/>
       <use x="127.246094" xlink:href="#DejaVuSans-25"/>
      </g>
     </g>
    </g>
    <g id="ytick_8">
     <g id="line2d_23">
      <path clip-path="url(#p3aa52ba618)" d="M 60.338438 134.0775 
L 562.538438 134.0775 
" style="fill:none;stroke:#bfbfbf;stroke-dasharray:2.96,1.28;stroke-dashoffset:0;stroke-width:0.8;"/>
     </g>
     <g id="line2d_24">
      <g>
       <use style="stroke:#000000;stroke-width:0.8;" x="60.338438" xlink:href="#mb5cc354341" y="134.0775"/>
      </g>
     </g>
     <g id="text_16">
      <!-- 70% -->
      <g transform="translate(31.111875 137.876719)scale(0.1 -0.1)">
       <defs>
        <path d="M 525 4666 
L 3525 4666 
L 3525 4397 
L 1831 0 
L 1172 0 
L 2766 4134 
L 525 4134 
L 525 4666 
z
" id="DejaVuSans-37" transform="scale(0.015625)"/>
       </defs>
       <use xlink:href="#DejaVuSans-37"/>
       <use x="63.623047" xlink:href="#DejaVuSans-30"/>
       <use x="127.246094" xlink:href="#DejaVuSans-25"/>
      </g>
     </g>
    </g>
    <g id="ytick_9">
     <g id="line2d_25">
      <path clip-path="url(#p3aa52ba618)" d="M 60.338438 103.014643 
L 562.538438 103.014643 
" style="fill:none;stroke:#bfbfbf;stroke-dasharray:2.96,1.28;stroke-dashoffset:0;stroke-width:0.8;"/>
     </g>
     <g id="line2d_26">
      <g>
       <use style="stroke:#000000;stroke-width:0.8;" x="60.338438" xlink:href="#mb5cc354341" y="103.014643"/>
      </g>
     </g>
     <g id="text_17">
      <!-- 80% -->
      <g transform="translate(31.111875 106.813862)scale(0.1 -0.1)">
       <defs>
        <path d="M 2034 2216 
Q 1584 2216 1326 1975 
Q 1069 1734 1069 1313 
Q 1069 891 1326 650 
Q 1584 409 2034 409 
Q 2484 409 2743 651 
Q 3003 894 3003 1313 
Q 3003 1734 2745 1975 
Q 2488 2216 2034 2216 
z
M 1403 2484 
Q 997 2584 770 2862 
Q 544 3141 544 3541 
Q 544 4100 942 4425 
Q 1341 4750 2034 4750 
Q 2731 4750 3128 4425 
Q 3525 4100 3525 3541 
Q 3525 3141 3298 2862 
Q 3072 2584 2669 2484 
Q 3125 2378 3379 2068 
Q 3634 1759 3634 1313 
Q 3634 634 3220 271 
Q 2806 -91 2034 -91 
Q 1263 -91 848 271 
Q 434 634 434 1313 
Q 434 1759 690 2068 
Q 947 2378 1403 2484 
z
M 1172 3481 
Q 1172 3119 1398 2916 
Q 1625 2713 2034 2713 
Q 2441 2713 2670 2916 
Q 2900 3119 2900 3481 
Q 2900 3844 2670 4047 
Q 2441 4250 2034 4250 
Q 1625 4250 1398 4047 
Q 1172 3844 1172 3481 
z
" id="DejaVuSans-38" transform="scale(0.015625)"/>
       </defs>
       <use xlink:href="#DejaVuSans-38"/>
       <use x="63.623047" xlink:href="#DejaVuSans-30"/>
       <use x="127.246094" xlink:href="#DejaVuSans-25"/>
      </g>
     </g>
    </g>
    <g id="ytick_10">
     <g id="line2d_27">
      <path clip-path="url(#p3aa52ba618)" d="M 60.338438 71.951786 
L 562.538438 71.951786 
" style="fill:none;stroke:#bfbfbf;stroke-dasharray:2.96,1.28;stroke-dashoffset:0;stroke-width:0.8;"/>
     </g>
     <g id="line2d_28">
      <g>
       <use style="stroke:#000000;stroke-width:0.8;" x="60.338438" xlink:href="#mb5cc354341" y="71.951786"/>
      </g>
     </g>
     <g id="text_18">
      <!-- 90% -->
      <g transform="translate(31.111875 75.751004)scale(0.1 -0.1)">
       <defs>
        <path d="M 703 97 
L 703 672 
Q 941 559 1184 500 
Q 1428 441 1663 441 
Q 2288 441 2617 861 
Q 2947 1281 2994 2138 
Q 2813 1869 2534 1725 
Q 2256 1581 1919 1581 
Q 1219 1581 811 2004 
Q 403 2428 403 3163 
Q 403 3881 828 4315 
Q 1253 4750 1959 4750 
Q 2769 4750 3195 4129 
Q 3622 3509 3622 2328 
Q 3622 1225 3098 567 
Q 2575 -91 1691 -91 
Q 1453 -91 1209 -44 
Q 966 3 703 97 
z
M 1959 2075 
Q 2384 2075 2632 2365 
Q 2881 2656 2881 3163 
Q 2881 3666 2632 3958 
Q 2384 4250 1959 4250 
Q 1534 4250 1286 3958 
Q 1038 3666 1038 3163 
Q 1038 2656 1286 2365 
Q 1534 2075 1959 2075 
z
" id="DejaVuSans-39" transform="scale(0.015625)"/>
       </defs>
       <use xlink:href="#DejaVuSans-39"/>
       <use x="63.623047" xlink:href="#DejaVuSans-30"/>
       <use x="127.246094" xlink:href="#DejaVuSans-25"/>
      </g>
     </g>
    </g>
    <g id="ytick_11">
     <g id="line2d_29">
      <path clip-path="url(#p3aa52ba618)" d="M 60.338438 40.888929 
L 562.538438 40.888929 
" style="fill:none;stroke:#bfbfbf;stroke-dasharray:2.96,1.28;stroke-dashoffset:0;stroke-width:0.8;"/>
     </g>
     <g id="line2d_30">
      <g>
       <use style="stroke:#000000;stroke-width:0.8;" x="60.338438" xlink:href="#mb5cc354341" y="40.888929"/>
      </g>
     </g>
     <g id="text_19">
      <!-- 100% -->
      <g transform="translate(24.749375 44.688147)scale(0.1 -0.1)">
       <use xlink:href="#DejaVuSans-31"/>
       <use x="63.623047" xlink:href="#DejaVuSans-30"/>
       <use x="127.246094" xlink:href="#DejaVuSans-30"/>
       <use x="190.869141" xlink:href="#DejaVuSans-25"/>
      </g>
     </g>
    </g>
    <g id="text_20">
     <!-- Relative frequency -->
     <g transform="translate(17.837812 253.999062)rotate(-90)scale(0.14 -0.14)">
      <defs>
       <path d="M 2841 2188 
Q 3044 2119 3236 1894 
Q 3428 1669 3622 1275 
L 4263 0 
L 3584 0 
L 2988 1197 
Q 2756 1666 2539 1819 
Q 2322 1972 1947 1972 
L 1259 1972 
L 1259 0 
L 628 0 
L 628 4666 
L 2053 4666 
Q 2853 4666 3247 4331 
Q 3641 3997 3641 3322 
Q 3641 2881 3436 2590 
Q 3231 2300 2841 2188 
z
M 1259 4147 
L 1259 2491 
L 2053 2491 
Q 2509 2491 2742 2702 
Q 2975 2913 2975 3322 
Q 2975 3731 2742 3939 
Q 2509 4147 2053 4147 
L 1259 4147 
z
" id="DejaVuSans-52" transform="scale(0.015625)"/>
       <path d="M 603 4863 
L 1178 4863 
L 1178 0 
L 603 0 
L 603 4863 
z
" id="DejaVuSans-6c" transform="scale(0.015625)"/>
       <path id="DejaVuSans-20" transform="scale(0.015625)"/>
       <path d="M 2375 4863 
L 2375 4384 
L 1825 4384 
Q 1516 4384 1395 4259 
Q 1275 4134 1275 3809 
L 1275 3500 
L 2222 3500 
L 2222 3053 
L 1275 3053 
L 1275 0 
L 697 0 
L 697 3053 
L 147 3053 
L 147 3500 
L 697 3500 
L 697 3744 
Q 697 4328 969 4595 
Q 1241 4863 1831 4863 
L 2375 4863 
z
" id="DejaVuSans-66" transform="scale(0.015625)"/>
       <path d="M 947 1747 
Q 947 1113 1208 752 
Q 1469 391 1925 391 
Q 2381 391 2643 752 
Q 2906 1113 2906 1747 
Q 2906 2381 2643 2742 
Q 2381 3103 1925 3103 
Q 1469 3103 1208 2742 
Q 947 2381 947 1747 
z
M 2906 525 
Q 2725 213 2448 61 
Q 2172 -91 1784 -91 
Q 1150 -91 751 415 
Q 353 922 353 1747 
Q 353 2572 751 3078 
Q 1150 3584 1784 3584 
Q 2172 3584 2448 3432 
Q 2725 3281 2906 2969 
L 2906 3500 
L 3481 3500 
L 3481 -1331 
L 2906 -1331 
L 2906 525 
z
" id="DejaVuSans-71" transform="scale(0.015625)"/>
       <path d="M 544 1381 
L 544 3500 
L 1119 3500 
L 1119 1403 
Q 1119 906 1312 657 
Q 1506 409 1894 409 
Q 2359 409 2629 706 
Q 2900 1003 2900 1516 
L 2900 3500 
L 3475 3500 
L 3475 0 
L 2900 0 
L 2900 538 
Q 2691 219 2414 64 
Q 2138 -91 1772 -91 
Q 1169 -91 856 284 
Q 544 659 544 1381 
z
M 1991 3584 
L 1991 3584 
z
" id="DejaVuSans-75" transform="scale(0.015625)"/>
       <path d="M 3122 3366 
L 3122 2828 
Q 2878 2963 2633 3030 
Q 2388 3097 2138 3097 
Q 1578 3097 1268 2742 
Q 959 2388 959 1747 
Q 959 1106 1268 751 
Q 1578 397 2138 397 
Q 2388 397 2633 464 
Q 2878 531 3122 666 
L 3122 134 
Q 2881 22 2623 -34 
Q 2366 -91 2075 -91 
Q 1284 -91 818 406 
Q 353 903 353 1747 
Q 353 2603 823 3093 
Q 1294 3584 2113 3584 
Q 2378 3584 2631 3529 
Q 2884 3475 3122 3366 
z
" id="DejaVuSans-63" transform="scale(0.015625)"/>
       <path d="M 2059 -325 
Q 1816 -950 1584 -1140 
Q 1353 -1331 966 -1331 
L 506 -1331 
L 506 -850 
L 844 -850 
Q 1081 -850 1212 -737 
Q 1344 -625 1503 -206 
L 1606 56 
L 191 3500 
L 800 3500 
L 1894 763 
L 2988 3500 
L 3597 3500 
L 2059 -325 
z
" id="DejaVuSans-79" transform="scale(0.015625)"/>
      </defs>
      <use xlink:href="#DejaVuSans-52"/>
      <use x="64.982422" xlink:href="#DejaVuSans-65"/>
      <use x="126.505859" xlink:href="#DejaVuSans-6c"/>
      <use x="154.289062" xlink:href="#DejaVuSans-61"/>
      <use x="215.568359" xlink:href="#DejaVuSans-74"/>
      <use x="254.777344" xlink:href="#DejaVuSans-69"/>
      <use x="282.560547" xlink:href="#DejaVuSans-76"/>
      <use x="341.740234" xlink:href="#DejaVuSans-65"/>
      <use x="403.263672" xlink:href="#DejaVuSans-20"/>
      <use x="435.050781" xlink:href="#DejaVuSans-66"/>
      <use x="470.255859" xlink:href="#DejaVuSans-72"/>
      <use x="509.119141" xlink:href="#DejaVuSans-65"/>
      <use x="570.642578" xlink:href="#DejaVuSans-71"/>
      <use x="634.119141" xlink:href="#DejaVuSans-75"/>
      <use x="697.498047" xlink:href="#DejaVuSans-65"/>
      <use x="759.021484" xlink:href="#DejaVuSans-6e"/>
      <use x="822.400391" xlink:href="#DejaVuSans-63"/>
      <use x="877.380859" xlink:href="#DejaVuSans-79"/>
     </g>
    </g>
   </g>
   <g id="patch_43">
    <path d="M 60.338438 351.5175 
L 60.338438 25.3575 
" style="fill:none;stroke:#000000;stroke-linecap:square;stroke-linejoin:miter;stroke-width:0.8;"/>
   </g>
   <g id="patch_44">
    <path d="M 562.538438 351.5175 
L 562.538438 25.3575 
" style="fill:none;stroke:#000000;stroke-linecap:square;stroke-linejoin:miter;stroke-width:0.8;"/>
   </g>
   <g id="patch_45">
    <path d="M 60.338437 351.5175 
L 562.538438 351.5175 
" style="fill:none;stroke:#000000;stroke-linecap:square;stroke-linejoin:miter;stroke-width:0.8;"/>
   </g>
   <g id="patch_46">
    <path d="M 60.338437 25.3575 
L 562.538438 25.3575 
" style="fill:none;stroke:#000000;stroke-linecap:square;stroke-linejoin:miter;stroke-width:0.8;"/>
   </g>
   <g id="text_21">
    <!-- Overall Bag Usage in England by Year and Time -->
    <g transform="translate(120.962188 19.3575)scale(0.16 -0.16)">
     <defs>
      <path d="M 2522 4238 
Q 1834 4238 1429 3725 
Q 1025 3213 1025 2328 
Q 1025 1447 1429 934 
Q 1834 422 2522 422 
Q 3209 422 3611 934 
Q 4013 1447 4013 2328 
Q 4013 3213 3611 3725 
Q 3209 4238 2522 4238 
z
M 2522 4750 
Q 3503 4750 4090 4092 
Q 4678 3434 4678 2328 
Q 4678 1225 4090 567 
Q 3503 -91 2522 -91 
Q 1538 -91 948 565 
Q 359 1222 359 2328 
Q 359 3434 948 4092 
Q 1538 4750 2522 4750 
z
" id="DejaVuSans-4f" transform="scale(0.015625)"/>
      <path d="M 1259 2228 
L 1259 519 
L 2272 519 
Q 2781 519 3026 730 
Q 3272 941 3272 1375 
Q 3272 1813 3026 2020 
Q 2781 2228 2272 2228 
L 1259 2228 
z
M 1259 4147 
L 1259 2741 
L 2194 2741 
Q 2656 2741 2882 2914 
Q 3109 3088 3109 3444 
Q 3109 3797 2882 3972 
Q 2656 4147 2194 4147 
L 1259 4147 
z
M 628 4666 
L 2241 4666 
Q 2963 4666 3353 4366 
Q 3744 4066 3744 3513 
Q 3744 3084 3544 2831 
Q 3344 2578 2956 2516 
Q 3422 2416 3680 2098 
Q 3938 1781 3938 1306 
Q 3938 681 3513 340 
Q 3088 0 2303 0 
L 628 0 
L 628 4666 
z
" id="DejaVuSans-42" transform="scale(0.015625)"/>
      <path d="M 556 4666 
L 1191 4666 
L 1191 1831 
Q 1191 1081 1462 751 
Q 1734 422 2344 422 
Q 2950 422 3222 751 
Q 3494 1081 3494 1831 
L 3494 4666 
L 4128 4666 
L 4128 1753 
Q 4128 841 3676 375 
Q 3225 -91 2344 -91 
Q 1459 -91 1007 375 
Q 556 841 556 1753 
L 556 4666 
z
" id="DejaVuSans-55" transform="scale(0.015625)"/>
      <path d="M 2834 3397 
L 2834 2853 
Q 2591 2978 2328 3040 
Q 2066 3103 1784 3103 
Q 1356 3103 1142 2972 
Q 928 2841 928 2578 
Q 928 2378 1081 2264 
Q 1234 2150 1697 2047 
L 1894 2003 
Q 2506 1872 2764 1633 
Q 3022 1394 3022 966 
Q 3022 478 2636 193 
Q 2250 -91 1575 -91 
Q 1294 -91 989 -36 
Q 684 19 347 128 
L 347 722 
Q 666 556 975 473 
Q 1284 391 1588 391 
Q 1994 391 2212 530 
Q 2431 669 2431 922 
Q 2431 1156 2273 1281 
Q 2116 1406 1581 1522 
L 1381 1569 
Q 847 1681 609 1914 
Q 372 2147 372 2553 
Q 372 3047 722 3315 
Q 1072 3584 1716 3584 
Q 2034 3584 2315 3537 
Q 2597 3491 2834 3397 
z
" id="DejaVuSans-73" transform="scale(0.015625)"/>
      <path d="M 2906 2969 
L 2906 4863 
L 3481 4863 
L 3481 0 
L 2906 0 
L 2906 525 
Q 2725 213 2448 61 
Q 2172 -91 1784 -91 
Q 1150 -91 751 415 
Q 353 922 353 1747 
Q 353 2572 751 3078 
Q 1150 3584 1784 3584 
Q 2172 3584 2448 3432 
Q 2725 3281 2906 2969 
z
M 947 1747 
Q 947 1113 1208 752 
Q 1469 391 1925 391 
Q 2381 391 2643 752 
Q 2906 1113 2906 1747 
Q 2906 2381 2643 2742 
Q 2381 3103 1925 3103 
Q 1469 3103 1208 2742 
Q 947 2381 947 1747 
z
" id="DejaVuSans-64" transform="scale(0.015625)"/>
      <path d="M 3116 1747 
Q 3116 2381 2855 2742 
Q 2594 3103 2138 3103 
Q 1681 3103 1420 2742 
Q 1159 2381 1159 1747 
Q 1159 1113 1420 752 
Q 1681 391 2138 391 
Q 2594 391 2855 752 
Q 3116 1113 3116 1747 
z
M 1159 2969 
Q 1341 3281 1617 3432 
Q 1894 3584 2278 3584 
Q 2916 3584 3314 3078 
Q 3713 2572 3713 1747 
Q 3713 922 3314 415 
Q 2916 -91 2278 -91 
Q 1894 -91 1617 61 
Q 1341 213 1159 525 
L 1159 0 
L 581 0 
L 581 4863 
L 1159 4863 
L 1159 2969 
z
" id="DejaVuSans-62" transform="scale(0.015625)"/>
      <path d="M -13 4666 
L 666 4666 
L 1959 2747 
L 3244 4666 
L 3922 4666 
L 2272 2222 
L 2272 0 
L 1638 0 
L 1638 2222 
L -13 4666 
z
" id="DejaVuSans-59" transform="scale(0.015625)"/>
      <path d="M -19 4666 
L 3928 4666 
L 3928 4134 
L 2272 4134 
L 2272 0 
L 1638 0 
L 1638 4134 
L -19 4134 
L -19 4666 
z
" id="DejaVuSans-54" transform="scale(0.015625)"/>
      <path d="M 3328 2828 
Q 3544 3216 3844 3400 
Q 4144 3584 4550 3584 
Q 5097 3584 5394 3201 
Q 5691 2819 5691 2113 
L 5691 0 
L 5113 0 
L 5113 2094 
Q 5113 2597 4934 2840 
Q 4756 3084 4391 3084 
Q 3944 3084 3684 2787 
Q 3425 2491 3425 1978 
L 3425 0 
L 2847 0 
L 2847 2094 
Q 2847 2600 2669 2842 
Q 2491 3084 2119 3084 
Q 1678 3084 1418 2786 
Q 1159 2488 1159 1978 
L 1159 0 
L 581 0 
L 581 3500 
L 1159 3500 
L 1159 2956 
Q 1356 3278 1631 3431 
Q 1906 3584 2284 3584 
Q 2666 3584 2933 3390 
Q 3200 3197 3328 2828 
z
" id="DejaVuSans-6d" transform="scale(0.015625)"/>
     </defs>
     <use xlink:href="#DejaVuSans-4f"/>
     <use x="78.710938" xlink:href="#DejaVuSans-76"/>
     <use x="137.890625" xlink:href="#DejaVuSans-65"/>
     <use x="199.414062" xlink:href="#DejaVuSans-72"/>
     <use x="240.527344" xlink:href="#DejaVuSans-61"/>
     <use x="301.806641" xlink:href="#DejaVuSans-6c"/>
     <use x="329.589844" xlink:href="#DejaVuSans-6c"/>
     <use x="357.373047" xlink:href="#DejaVuSans-20"/>
     <use x="389.160156" xlink:href="#DejaVuSans-42"/>
     <use x="457.763672" xlink:href="#DejaVuSans-61"/>
     <use x="519.042969" xlink:href="#DejaVuSans-67"/>
     <use x="582.519531" xlink:href="#DejaVuSans-20"/>
     <use x="614.306641" xlink:href="#DejaVuSans-55"/>
     <use x="687.5" xlink:href="#DejaVuSans-73"/>
     <use x="739.599609" xlink:href="#DejaVuSans-61"/>
     <use x="800.878906" xlink:href="#DejaVuSans-67"/>
     <use x="864.355469" xlink:href="#DejaVuSans-65"/>
     <use x="925.878906" xlink:href="#DejaVuSans-20"/>
     <use x="957.666016" xlink:href="#DejaVuSans-69"/>
     <use x="985.449219" xlink:href="#DejaVuSans-6e"/>
     <use x="1048.828125" xlink:href="#DejaVuSans-20"/>
     <use x="1080.615234" xlink:href="#DejaVuSans-45"/>
     <use x="1143.798828" xlink:href="#DejaVuSans-6e"/>
     <use x="1207.177734" xlink:href="#DejaVuSans-67"/>
     <use x="1270.654297" xlink:href="#DejaVuSans-6c"/>
     <use x="1298.4375" xlink:href="#DejaVuSans-61"/>
     <use x="1359.716797" xlink:href="#DejaVuSans-6e"/>
     <use x="1423.095703" xlink:href="#DejaVuSans-64"/>
     <use x="1486.572266" xlink:href="#DejaVuSans-20"/>
     <use x="1518.359375" xlink:href="#DejaVuSans-62"/>
     <use x="1581.835938" xlink:href="#DejaVuSans-79"/>
     <use x="1641.015625" xlink:href="#DejaVuSans-20"/>
     <use x="1672.802734" xlink:href="#DejaVuSans-59"/>
     <use x="1720.636719" xlink:href="#DejaVuSans-65"/>
     <use x="1782.160156" xlink:href="#DejaVuSans-61"/>
     <use x="1843.439453" xlink:href="#DejaVuSans-72"/>
     <use x="1884.552734" xlink:href="#DejaVuSans-20"/>
     <use x="1916.339844" xlink:href="#DejaVuSans-61"/>
     <use x="1977.619141" xlink:href="#DejaVuSans-6e"/>
     <use x="2040.998047" xlink:href="#DejaVuSans-64"/>
     <use x="2104.474609" xlink:href="#DejaVuSans-20"/>
     <use x="2136.261719" xlink:href="#DejaVuSans-54"/>
     <use x="2194.220703" xlink:href="#DejaVuSans-69"/>
     <use x="2222.003906" xlink:href="#DejaVuSans-6d"/>
     <use x="2319.416016" xlink:href="#DejaVuSans-65"/>
    </g>
   </g>
  </g>
  <g id="legend_1">
   <g id="patch_47">
    <path d="M 569.363438 114.38625 
L 716.138438 114.38625 
Q 718.538438 114.38625 718.538438 111.98625 
L 718.538438 25.1175 
Q 718.538438 22.7175 716.138438 22.7175 
L 569.363438 22.7175 
Q 566.963438 22.7175 566.963438 25.1175 
L 566.963438 111.98625 
Q 566.963438 114.38625 569.363438 114.38625 
z
" style="fill:#ffffff;opacity:0.8;stroke:#cccccc;stroke-linejoin:miter;"/>
   </g>
   <g id="patch_48">
    <path d="M 571.763438 36.635625 
L 595.763438 36.635625 
L 595.763438 28.235625 
L 571.763438 28.235625 
z
" style="fill:#00224e;"/>
   </g>
   <g id="text_22">
    <!-- No bags -->
    <g transform="translate(605.363438 36.635625)scale(0.12 -0.12)">
     <defs>
      <path d="M 628 4666 
L 1478 4666 
L 3547 763 
L 3547 4666 
L 4159 4666 
L 4159 0 
L 3309 0 
L 1241 3903 
L 1241 0 
L 628 0 
L 628 4666 
z
" id="DejaVuSans-4e" transform="scale(0.015625)"/>
     </defs>
     <use xlink:href="#DejaVuSans-4e"/>
     <use x="74.804688" xlink:href="#DejaVuSans-6f"/>
     <use x="135.986328" xlink:href="#DejaVuSans-20"/>
     <use x="167.773438" xlink:href="#DejaVuSans-62"/>
     <use x="231.25" xlink:href="#DejaVuSans-61"/>
     <use x="292.529297" xlink:href="#DejaVuSans-67"/>
     <use x="356.005859" xlink:href="#DejaVuSans-73"/>
    </g>
   </g>
   <g id="patch_49">
    <path d="M 571.763438 54.249375 
L 595.763438 54.249375 
L 595.763438 45.849375 
L 571.763438 45.849375 
z
" style="fill:#434e6c;"/>
   </g>
   <g id="text_23">
    <!-- Other (Misc) bags -->
    <g transform="translate(605.363438 54.249375)scale(0.12 -0.12)">
     <defs>
      <path d="M 3513 2113 
L 3513 0 
L 2938 0 
L 2938 2094 
Q 2938 2591 2744 2837 
Q 2550 3084 2163 3084 
Q 1697 3084 1428 2787 
Q 1159 2491 1159 1978 
L 1159 0 
L 581 0 
L 581 4863 
L 1159 4863 
L 1159 2956 
Q 1366 3272 1645 3428 
Q 1925 3584 2291 3584 
Q 2894 3584 3203 3211 
Q 3513 2838 3513 2113 
z
" id="DejaVuSans-68" transform="scale(0.015625)"/>
     </defs>
     <use xlink:href="#DejaVuSans-4f"/>
     <use x="78.710938" xlink:href="#DejaVuSans-74"/>
     <use x="117.919922" xlink:href="#DejaVuSans-68"/>
     <use x="181.298828" xlink:href="#DejaVuSans-65"/>
     <use x="242.822266" xlink:href="#DejaVuSans-72"/>
     <use x="283.935547" xlink:href="#DejaVuSans-20"/>
     <use x="315.722656" xlink:href="#DejaVuSans-28"/>
     <use x="354.736328" xlink:href="#DejaVuSans-4d"/>
     <use x="441.015625" xlink:href="#DejaVuSans-69"/>
     <use x="468.798828" xlink:href="#DejaVuSans-73"/>
     <use x="520.898438" xlink:href="#DejaVuSans-63"/>
     <use x="575.878906" xlink:href="#DejaVuSans-29"/>
     <use x="614.892578" xlink:href="#DejaVuSans-20"/>
     <use x="646.679688" xlink:href="#DejaVuSans-62"/>
     <use x="710.15625" xlink:href="#DejaVuSans-61"/>
     <use x="771.435547" xlink:href="#DejaVuSans-67"/>
     <use x="834.912109" xlink:href="#DejaVuSans-73"/>
    </g>
   </g>
   <g id="patch_50">
    <path d="M 571.763438 71.863125 
L 595.763438 71.863125 
L 595.763438 63.463125 
L 571.763438 63.463125 
z
" style="fill:#7d7c78;"/>
   </g>
   <g id="text_24">
    <!-- Only Own bags -->
    <g transform="translate(605.363438 71.863125)scale(0.12 -0.12)">
     <defs>
      <path d="M 269 3500 
L 844 3500 
L 1563 769 
L 2278 3500 
L 2956 3500 
L 3675 769 
L 4391 3500 
L 4966 3500 
L 4050 0 
L 3372 0 
L 2619 2869 
L 1863 0 
L 1184 0 
L 269 3500 
z
" id="DejaVuSans-77" transform="scale(0.015625)"/>
     </defs>
     <use xlink:href="#DejaVuSans-4f"/>
     <use x="78.710938" xlink:href="#DejaVuSans-6e"/>
     <use x="142.089844" xlink:href="#DejaVuSans-6c"/>
     <use x="169.873047" xlink:href="#DejaVuSans-79"/>
     <use x="229.052734" xlink:href="#DejaVuSans-20"/>
     <use x="260.839844" xlink:href="#DejaVuSans-4f"/>
     <use x="339.550781" xlink:href="#DejaVuSans-77"/>
     <use x="421.337891" xlink:href="#DejaVuSans-6e"/>
     <use x="484.716797" xlink:href="#DejaVuSans-20"/>
     <use x="516.503906" xlink:href="#DejaVuSans-62"/>
     <use x="579.980469" xlink:href="#DejaVuSans-61"/>
     <use x="641.259766" xlink:href="#DejaVuSans-67"/>
     <use x="704.736328" xlink:href="#DejaVuSans-73"/>
    </g>
   </g>
   <g id="patch_51">
    <path d="M 571.763438 89.476875 
L 595.763438 89.476875 
L 595.763438 81.076875 
L 571.763438 81.076875 
z
" style="fill:#bcae6c;"/>
   </g>
   <g id="text_25">
    <!-- SUPB &amp; Own bags -->
    <g transform="translate(605.363438 89.476875)scale(0.12 -0.12)">
     <defs>
      <path d="M 1259 4147 
L 1259 2394 
L 2053 2394 
Q 2494 2394 2734 2622 
Q 2975 2850 2975 3272 
Q 2975 3691 2734 3919 
Q 2494 4147 2053 4147 
L 1259 4147 
z
M 628 4666 
L 2053 4666 
Q 2838 4666 3239 4311 
Q 3641 3956 3641 3272 
Q 3641 2581 3239 2228 
Q 2838 1875 2053 1875 
L 1259 1875 
L 1259 0 
L 628 0 
L 628 4666 
z
" id="DejaVuSans-50" transform="scale(0.015625)"/>
      <path d="M 1556 2509 
Q 1272 2256 1139 2004 
Q 1006 1753 1006 1478 
Q 1006 1022 1337 719 
Q 1669 416 2169 416 
Q 2466 416 2725 514 
Q 2984 613 3213 813 
L 1556 2509 
z
M 1997 2859 
L 3584 1234 
Q 3769 1513 3872 1830 
Q 3975 2147 3994 2503 
L 4575 2503 
Q 4538 2091 4375 1687 
Q 4213 1284 3922 891 
L 4794 0 
L 4006 0 
L 3559 459 
Q 3234 181 2878 45 
Q 2522 -91 2113 -91 
Q 1359 -91 881 339 
Q 403 769 403 1441 
Q 403 1841 612 2192 
Q 822 2544 1241 2853 
Q 1091 3050 1012 3245 
Q 934 3441 934 3628 
Q 934 4134 1281 4442 
Q 1628 4750 2203 4750 
Q 2463 4750 2720 4694 
Q 2978 4638 3244 4525 
L 3244 3956 
Q 2972 4103 2725 4179 
Q 2478 4256 2266 4256 
Q 1938 4256 1733 4082 
Q 1528 3909 1528 3634 
Q 1528 3475 1620 3314 
Q 1713 3153 1997 2859 
z
" id="DejaVuSans-26" transform="scale(0.015625)"/>
     </defs>
     <use xlink:href="#DejaVuSans-53"/>
     <use x="63.476562" xlink:href="#DejaVuSans-55"/>
     <use x="136.669922" xlink:href="#DejaVuSans-50"/>
     <use x="196.972656" xlink:href="#DejaVuSans-42"/>
     <use x="265.576172" xlink:href="#DejaVuSans-20"/>
     <use x="297.363281" xlink:href="#DejaVuSans-26"/>
     <use x="375.341797" xlink:href="#DejaVuSans-20"/>
     <use x="407.128906" xlink:href="#DejaVuSans-4f"/>
     <use x="485.839844" xlink:href="#DejaVuSans-77"/>
     <use x="567.626953" xlink:href="#DejaVuSans-6e"/>
     <use x="631.005859" xlink:href="#DejaVuSans-20"/>
     <use x="662.792969" xlink:href="#DejaVuSans-62"/>
     <use x="726.269531" xlink:href="#DejaVuSans-61"/>
     <use x="787.548828" xlink:href="#DejaVuSans-67"/>
     <use x="851.025391" xlink:href="#DejaVuSans-73"/>
    </g>
   </g>
   <g id="patch_52">
    <path d="M 571.763438 107.090625 
L 595.763438 107.090625 
L 595.763438 98.690625 
L 571.763438 98.690625 
z
" style="fill:#fee838;"/>
   </g>
   <g id="text_26">
    <!-- Only SUPB -->
    <g transform="translate(605.363438 107.090625)scale(0.12 -0.12)">
     <use xlink:href="#DejaVuSans-4f"/>
     <use x="78.710938" xlink:href="#DejaVuSans-6e"/>
     <use x="142.089844" xlink:href="#DejaVuSans-6c"/>
     <use x="169.873047" xlink:href="#DejaVuSans-79"/>
     <use x="229.052734" xlink:href="#DejaVuSans-20"/>
     <use x="260.839844" xlink:href="#DejaVuSans-53"/>
     <use x="324.316406" xlink:href="#DejaVuSans-55"/>
     <use x="397.509766" xlink:href="#DejaVuSans-50"/>
     <use x="457.8125" xlink:href="#DejaVuSans-42"/>
    </g>
   </g>
  </g>
 </g>
 <defs>
  <clipPath id="p3aa52ba618">
   <rect height="326.16" width="502.2" x="60.338438" y="25.3575"/>
  </clipPath>
 </defs>
</svg>
