<?xml version="1.0" encoding="utf-8" standalone="no"?>
<!DOCTYPE svg PUBLIC "-//W3C//DTD SVG 1.1//EN"
  "http://www.w3.org/Graphics/SVG/1.1/DTD/svg11.dtd">
<svg height="392.945pt" version="1.1" viewBox="0 0 718.874375 392.945" width="718.874375pt" xmlns="http://www.w3.org/2000/svg" xmlns:xlink="http://www.w3.org/1999/xlink">
 <metadata>
  <rdf:RDF xmlns:cc="http://creativecommons.org/ns#" xmlns:dc="http://purl.org/dc/elements/1.1/" xmlns:rdf="http://www.w3.org/1999/02/22-rdf-syntax-ns#">
   <cc:Work>
    <dc:type rdf:resource="http://purl.org/dc/dcmitype/StillImage"/>
    <dc:date>2021-10-12T14:31:52.611122</dc:date>
    <dc:format>image/svg+xml</dc:format>
    <dc:creator>
     <cc:Agent>
      <dc:title>Matplotlib v3.4.2, https://matplotlib.org/</dc:title>
     </cc:Agent>
    </dc:creator>
   </cc:Work>
  </rdf:RDF>
 </metadata>
 <defs>
  <style type="text/css">*{stroke-linecap:butt;stroke-linejoin:round;}</style>
 </defs>
 <g id="figure_1">
  <g id="patch_1">
   <path d="M 0 392.945 
L 718.874375 392.945 
L 718.874375 0 
L 0 0 
z
" style="fill:none;"/>
  </g>
  <g id="axes_1">
   <g id="patch_2">
    <path d="M 44.474375 351.5175 
L 490.874375 351.5175 
L 490.874375 25.3575 
L 44.474375 25.3575 
z
" style="fill:#ffffff;"/>
   </g>
   <g id="PolyCollection_1">
    <path clip-path="url(#pa62b48cec2)" d="M 145.92892 336.692045 
L 64.765284 336.692045 
L 73.512087 334.695351 
L 89.978105 332.698657 
L 100.769273 330.701963 
L 104.388903 328.705269 
L 104.490148 326.708574 
L 102.440564 324.71188 
L 98.564205 322.715186 
L 95.585118 320.718492 
L 96.700917 318.721798 
L 100.634439 316.725103 
L 103.764621 314.728409 
L 105.000132 312.731715 
L 105.161244 310.735021 
L 104.724168 308.738326 
L 103.710562 306.741632 
L 102.687972 304.744938 
L 102.687976 302.748244 
L 103.710702 300.75155 
L 104.727072 298.754855 
L 105.198401 296.758161 
L 105.292657 294.761467 
L 105.181839 292.764773 
L 104.859736 290.768079 
L 104.453107 288.771384 
L 104.33774 286.77469 
L 104.645794 284.777996 
L 105.047173 282.781302 
L 105.267154 280.784607 
L 105.324993 278.787913 
L 105.294772 276.791219 
L 105.175157 274.794525 
L 104.99108 272.797831 
L 104.893265 270.801136 
L 104.991083 268.804442 
L 105.175229 266.807748 
L 105.295936 264.811054 
L 105.336673 262.81436 
L 105.339289 260.817665 
L 105.321328 258.820971 
L 105.286987 256.824277 
L 105.260585 254.827583 
L 105.270474 252.830888 
L 105.305335 250.834194 
L 105.333056 248.8375 
L 105.343782 246.840806 
L 105.343742 244.844112 
L 105.33423 242.847417 
L 105.313186 240.850723 
L 105.291991 238.854029 
L 105.291991 236.857335 
L 105.313187 234.86064 
L 105.33424 232.863946 
L 105.343864 230.867252 
L 105.344745 228.870558 
L 105.337725 226.873864 
L 105.319256 224.877169 
L 105.296017 222.880475 
L 105.289424 220.883781 
L 105.307028 218.887087 
L 105.329963 216.890393 
L 105.342526 214.893698 
L 105.34577 212.897004 
L 105.343736 210.90031 
L 105.33601 208.903616 
L 105.324133 206.906921 
L 105.317822 204.910227 
L 105.324133 202.913533 
L 105.336011 200.916839 
L 105.343754 198.920145 
L 105.345953 196.92345 
L 105.343653 194.926756 
L 105.334247 192.930062 
L 105.317046 190.933368 
L 105.303844 188.936674 
L 105.308788 186.939979 
L 105.326219 184.943285 
L 105.340098 182.946591 
L 105.345657 180.949897 
L 105.346919 178.953202 
L 105.347088 176.956508 
L 105.347102 174.959814 
L 105.347102 172.96312 
L 105.347102 170.966426 
L 105.347102 168.969731 
L 105.347097 166.973037 
L 105.347041 164.976343 
L 105.34662 162.979649 
L 105.344767 160.982955 
L 105.340141 158.98626 
L 105.334331 156.989566 
L 105.332683 154.992872 
L 105.337084 152.996178 
L 105.342816 150.999483 
L 105.345941 149.002789 
L 105.346619 147.006095 
L 105.345437 145.009401 
L 105.341557 143.012707 
L 105.335618 141.016012 
L 105.332462 139.019318 
L 105.361742 139.019318 
L 105.361742 139.019318 
L 105.358587 141.016012 
L 105.352647 143.012707 
L 105.348767 145.009401 
L 105.347586 147.006095 
L 105.348263 149.002789 
L 105.351388 150.999483 
L 105.357121 152.996178 
L 105.361522 154.992872 
L 105.359874 156.989566 
L 105.354063 158.98626 
L 105.349437 160.982955 
L 105.347584 162.979649 
L 105.347163 164.976343 
L 105.347107 166.973037 
L 105.347103 168.969731 
L 105.347102 170.966426 
L 105.347102 172.96312 
L 105.347103 174.959814 
L 105.347117 176.956508 
L 105.347286 178.953202 
L 105.348548 180.949897 
L 105.354107 182.946591 
L 105.367985 184.943285 
L 105.385416 186.939979 
L 105.390361 188.936674 
L 105.377158 190.933368 
L 105.359958 192.930062 
L 105.350551 194.926756 
L 105.348252 196.92345 
L 105.350451 198.920145 
L 105.358194 200.916839 
L 105.370071 202.913533 
L 105.376382 204.910227 
L 105.370071 206.906921 
L 105.358195 208.903616 
L 105.350469 210.90031 
L 105.348434 212.897004 
L 105.351678 214.893698 
L 105.364242 216.890393 
L 105.387177 218.887087 
L 105.40478 220.883781 
L 105.398188 222.880475 
L 105.374948 224.877169 
L 105.356479 226.873864 
L 105.349459 228.870558 
L 105.35034 230.867252 
L 105.359965 232.863946 
L 105.381018 234.86064 
L 105.402214 236.857335 
L 105.402214 238.854029 
L 105.381018 240.850723 
L 105.359974 242.847417 
L 105.350463 244.844112 
L 105.350423 246.840806 
L 105.361149 248.8375 
L 105.38887 250.834194 
L 105.42373 252.830888 
L 105.433619 254.827583 
L 105.407217 256.824277 
L 105.372877 258.820971 
L 105.354915 260.817665 
L 105.357531 262.81436 
L 105.398269 264.811054 
L 105.518976 266.807748 
L 105.703121 268.804442 
L 105.800939 270.801136 
L 105.703124 272.797831 
L 105.519047 274.794525 
L 105.399433 276.791219 
L 105.369211 278.787913 
L 105.42705 280.784607 
L 105.647031 282.781302 
L 106.04841 284.777996 
L 106.356465 286.77469 
L 106.241098 288.771384 
L 105.834468 290.768079 
L 105.512365 292.764773 
L 105.401548 294.761467 
L 105.495804 296.758161 
L 105.967132 298.754855 
L 106.983502 300.75155 
L 108.006229 302.748244 
L 108.006233 304.744938 
L 106.983642 306.741632 
L 105.970036 308.738326 
L 105.53296 310.735021 
L 105.694072 312.731715 
L 106.929583 314.728409 
L 110.059766 316.725103 
L 113.993287 318.721798 
L 115.109086 320.718492 
L 112.13 322.715186 
L 108.253641 324.71188 
L 106.204057 326.708574 
L 106.305302 328.705269 
L 109.924932 330.701963 
L 120.716099 332.698657 
L 137.182117 334.695351 
L 145.92892 336.692045 
z
" style="fill:#1f77b4;fill-opacity:0.3;"/>
   </g>
   <g id="PolyCollection_2">
    <path clip-path="url(#pa62b48cec2)" d="M 308.256193 336.692045 
L 227.092557 336.692045 
L 235.356054 334.52896 
L 251.344289 332.365875 
L 262.363874 330.202789 
L 266.074373 328.039704 
L 265.314368 325.876618 
L 261.83739 323.713533 
L 257.992019 321.550448 
L 257.470212 319.387362 
L 260.85336 317.224277 
L 264.776511 315.061191 
L 266.83986 312.898106 
L 267.228773 310.735021 
L 266.57425 308.571935 
L 265.285268 306.40885 
L 264.343234 304.245764 
L 264.727625 302.082679 
L 266.020756 299.919594 
L 267.080872 297.756508 
L 267.503117 295.593423 
L 267.478487 293.430337 
L 267.157733 291.267252 
L 266.723719 289.104167 
L 266.561511 286.941081 
L 266.848055 284.777996 
L 267.284591 282.61491 
L 267.551359 280.451825 
L 267.610887 278.28874 
L 267.511919 276.125654 
L 267.283727 273.962569 
L 267.069396 271.799483 
L 267.079906 269.636398 
L 267.303841 267.473313 
L 267.527023 265.310227 
L 267.630121 263.147142 
L 267.630017 260.984056 
L 267.54922 258.820971 
L 267.418901 256.657886 
L 267.342183 254.4948 
L 267.400395 252.331715 
L 267.530996 250.168629 
L 267.626035 248.005544 
L 267.658949 245.842459 
L 267.649822 243.679373 
L 267.611249 241.516288 
L 267.565916 239.353202 
L 267.555995 237.190117 
L 267.592419 235.027032 
L 267.638275 232.863946 
L 267.663253 230.700861 
L 267.666346 228.537775 
L 267.651692 226.37469 
L 267.623144 224.211605 
L 267.600387 222.048519 
L 267.606591 219.885434 
L 267.634971 217.722348 
L 267.659621 215.559263 
L 267.669166 213.396178 
L 267.665229 211.233092 
L 267.648273 209.070007 
L 267.624559 206.906921 
L 267.613977 204.743836 
L 267.62793 202.580751 
L 267.651698 200.417665 
L 267.667093 198.25458 
L 267.671254 196.091494 
L 267.667232 193.928409 
L 267.656721 191.765324 
L 267.646066 189.602238 
L 267.645567 187.439153 
L 267.65578 185.276067 
L 267.666729 183.112982 
L 267.672102 180.949897 
L 267.67248 178.786811 
L 267.669083 176.623726 
L 267.663207 174.46064 
L 267.659336 172.297555 
L 267.66153 170.13447 
L 267.667417 167.971384 
L 267.671985 165.808299 
L 267.673854 163.645213 
L 267.674303 161.482128 
L 267.674369 159.319043 
L 267.674375 157.155957 
L 267.674375 154.992872 
L 267.674375 152.829787 
L 267.674375 150.666701 
L 267.674375 148.503616 
L 267.674375 146.34053 
L 267.674375 144.177445 
L 267.674375 142.01436 
L 267.674375 139.851274 
L 267.674375 137.688189 
L 267.674371 135.525103 
L 267.674324 133.362018 
L 267.673979 131.198933 
L 267.672427 129.035847 
L 267.668294 126.872762 
L 267.662334 124.709676 
L 267.659255 122.546591 
L 267.689495 122.546591 
L 267.689495 122.546591 
L 267.686416 124.709676 
L 267.680456 126.872762 
L 267.676323 129.035847 
L 267.674771 131.198933 
L 267.674426 133.362018 
L 267.674379 135.525103 
L 267.674375 137.688189 
L 267.674375 139.851274 
L 267.674375 142.01436 
L 267.674375 144.177445 
L 267.674375 146.34053 
L 267.674375 148.503616 
L 267.674375 150.666701 
L 267.674375 152.829787 
L 267.674375 154.992872 
L 267.674375 157.155957 
L 267.674381 159.319043 
L 267.674447 161.482128 
L 267.674896 163.645213 
L 267.676765 165.808299 
L 267.681333 167.971384 
L 267.68722 170.13447 
L 267.689414 172.297555 
L 267.685543 174.46064 
L 267.679667 176.623726 
L 267.67627 178.786811 
L 267.676648 180.949897 
L 267.682021 183.112982 
L 267.69297 185.276067 
L 267.703183 187.439153 
L 267.702684 189.602238 
L 267.692029 191.765324 
L 267.681518 193.928409 
L 267.677496 196.091494 
L 267.681657 198.25458 
L 267.697052 200.417665 
L 267.72082 202.580751 
L 267.734773 204.743836 
L 267.724191 206.906921 
L 267.700477 209.070007 
L 267.683521 211.233092 
L 267.679584 213.396178 
L 267.689129 215.559263 
L 267.713779 217.722348 
L 267.742159 219.885434 
L 267.748363 222.048519 
L 267.725606 224.211605 
L 267.697058 226.37469 
L 267.682404 228.537775 
L 267.685497 230.700861 
L 267.710475 232.863946 
L 267.756331 235.027032 
L 267.792755 237.190117 
L 267.782834 239.353202 
L 267.737501 241.516288 
L 267.698928 243.679373 
L 267.689801 245.842459 
L 267.722715 248.005544 
L 267.817754 250.168629 
L 267.948355 252.331715 
L 268.006567 254.4948 
L 267.929849 256.657886 
L 267.79953 258.820971 
L 267.718733 260.984056 
L 267.718629 263.147142 
L 267.821727 265.310227 
L 268.044909 267.473313 
L 268.268844 269.636398 
L 268.279354 271.799483 
L 268.065023 273.962569 
L 267.836831 276.125654 
L 267.737863 278.28874 
L 267.797391 280.451825 
L 268.064159 282.61491 
L 268.500695 284.777996 
L 268.787239 286.941081 
L 268.625031 289.104167 
L 268.191017 291.267252 
L 267.870263 293.430337 
L 267.845633 295.593423 
L 268.267878 297.756508 
L 269.327994 299.919594 
L 270.621125 302.082679 
L 271.005516 304.245764 
L 270.063482 306.40885 
L 268.7745 308.571935 
L 268.119977 310.735021 
L 268.50889 312.898106 
L 270.572239 315.061191 
L 274.49539 317.224277 
L 277.878538 319.387362 
L 277.356731 321.550448 
L 273.51136 323.713533 
L 270.034382 325.876618 
L 269.274377 328.039704 
L 272.984876 330.202789 
L 284.004461 332.365875 
L 299.992696 334.52896 
L 308.256193 336.692045 
z
" style="fill:#1f77b4;fill-opacity:0.3;"/>
   </g>
   <g id="PolyCollection_3">
    <path clip-path="url(#pa62b48cec2)" d="M 470.583466 336.692045 
L 389.41983 336.692045 
L 398.052505 333.697004 
L 413.503733 330.701963 
L 420.183053 327.706921 
L 415.06387 324.71188 
L 406.890146 321.716839 
L 406.954272 318.721798 
L 415.683673 315.726756 
L 423.610433 312.731715 
L 425.128143 309.736674 
L 422.241257 306.741632 
L 420.298571 303.746591 
L 422.383377 300.75155 
L 426.135813 297.756508 
L 427.973763 294.761467 
L 427.275533 291.766426 
L 425.853315 288.771384 
L 425.868064 285.776343 
L 427.418083 282.781302 
L 428.762036 279.78626 
L 428.80937 276.791219 
L 427.947416 273.796178 
L 427.415462 270.801136 
L 427.969947 267.806095 
L 428.969122 264.811054 
L 429.453784 261.816012 
L 429.255837 258.820971 
L 428.864742 255.82593 
L 428.86918 252.830888 
L 429.298736 249.835847 
L 429.691007 246.840806 
L 429.773701 243.845764 
L 429.644301 240.850723 
L 429.555524 237.855682 
L 429.651864 234.86064 
L 429.827324 231.865599 
L 429.923202 228.870558 
L 429.9156 225.875517 
L 429.874953 222.880475 
L 429.875507 219.885434 
L 429.920963 216.890393 
L 429.952855 213.895351 
L 429.927897 210.90031 
L 429.861179 207.905269 
L 429.823418 204.910227 
L 429.861809 201.915186 
L 429.932365 198.920145 
L 429.972204 195.925103 
L 429.972369 192.930062 
L 429.959349 189.935021 
L 429.95958 186.939979 
L 429.974604 183.944938 
L 429.98456 180.949897 
L 429.97427 177.954855 
L 429.949012 174.959814 
L 429.934825 171.964773 
L 429.949327 168.969731 
L 429.976505 165.97469 
L 429.994234 162.979649 
L 430.000307 159.984607 
L 430.001499 156.989566 
L 430.001638 153.994525 
L 430.001647 150.999483 
L 430.001648 148.004442 
L 430.001648 145.009401 
L 430.001647 142.01436 
L 430.001634 139.019318 
L 430.001489 136.024277 
L 430.000531 133.029236 
L 429.99681 130.034194 
L 429.988797 127.039153 
L 429.980702 124.044112 
L 429.980702 121.04907 
L 429.988797 118.054029 
L 429.99681 115.058988 
L 430.000531 112.063946 
L 430.001489 109.068905 
L 430.001634 106.073864 
L 430.001647 103.078822 
L 430.001648 100.083781 
L 430.001648 97.08874 
L 430.001648 94.093698 
L 430.001648 91.098657 
L 430.001648 88.103616 
L 430.001648 85.108574 
L 430.001648 82.113533 
L 430.001648 79.118492 
L 430.001648 76.12345 
L 430.001648 73.128409 
L 430.001648 70.133368 
L 430.001648 67.138326 
L 430.001648 64.143285 
L 430.001648 61.148244 
L 430.001644 58.153202 
L 430.001598 55.158161 
L 430.001201 52.16312 
L 429.999177 49.168079 
L 429.993267 46.173037 
L 429.984208 43.177996 
L 429.979383 40.182955 
L 430.023913 40.182955 
L 430.023913 40.182955 
L 430.019087 43.177996 
L 430.010029 46.173037 
L 430.004119 49.168079 
L 430.002095 52.16312 
L 430.001697 55.158161 
L 430.001651 58.153202 
L 430.001648 61.148244 
L 430.001648 64.143285 
L 430.001648 67.138326 
L 430.001648 70.133368 
L 430.001648 73.128409 
L 430.001648 76.12345 
L 430.001648 79.118492 
L 430.001648 82.113533 
L 430.001648 85.108574 
L 430.001648 88.103616 
L 430.001648 91.098657 
L 430.001648 94.093698 
L 430.001648 97.08874 
L 430.001648 100.083781 
L 430.001648 103.078822 
L 430.001661 106.073864 
L 430.001806 109.068905 
L 430.002765 112.063946 
L 430.006485 115.058988 
L 430.014499 118.054029 
L 430.022594 121.04907 
L 430.022594 124.044112 
L 430.014499 127.039153 
L 430.006485 130.034194 
L 430.002765 133.029236 
L 430.001806 136.024277 
L 430.001661 139.019318 
L 430.001648 142.01436 
L 430.001648 145.009401 
L 430.001648 148.004442 
L 430.001648 150.999483 
L 430.001658 153.994525 
L 430.001797 156.989566 
L 430.002989 159.984607 
L 430.009061 162.979649 
L 430.026791 165.97469 
L 430.053968 168.969731 
L 430.06847 171.964773 
L 430.054283 174.959814 
L 430.029025 177.954855 
L 430.018736 180.949897 
L 430.028692 183.944938 
L 430.043716 186.939979 
L 430.043947 189.935021 
L 430.030926 192.930062 
L 430.031091 195.925103 
L 430.07093 198.920145 
L 430.141487 201.915186 
L 430.179877 204.910227 
L 430.142117 207.905269 
L 430.075399 210.90031 
L 430.050441 213.895351 
L 430.082333 216.890393 
L 430.127788 219.885434 
L 430.128343 222.880475 
L 430.087695 225.875517 
L 430.080094 228.870558 
L 430.175972 231.865599 
L 430.351432 234.86064 
L 430.447772 237.855682 
L 430.358995 240.850723 
L 430.229595 243.845764 
L 430.312289 246.840806 
L 430.704559 249.835847 
L 431.134115 252.830888 
L 431.138554 255.82593 
L 430.747458 258.820971 
L 430.549512 261.816012 
L 431.034173 264.811054 
L 432.033348 267.806095 
L 432.587833 270.801136 
L 432.055879 273.796178 
L 431.193926 276.791219 
L 431.24126 279.78626 
L 432.585213 282.781302 
L 434.135232 285.776343 
L 434.14998 288.771384 
L 432.727763 291.766426 
L 432.029533 294.761467 
L 433.867482 297.756508 
L 437.619918 300.75155 
L 439.704725 303.746591 
L 437.762039 306.741632 
L 434.875152 309.736674 
L 436.392863 312.731715 
L 444.319622 315.726756 
L 453.049024 318.721798 
L 453.113149 321.716839 
L 444.939426 324.71188 
L 439.820242 327.706921 
L 446.499562 330.701963 
L 461.950791 333.697004 
L 470.583466 336.692045 
z
" style="fill:#1f77b4;fill-opacity:0.3;"/>
   </g>
   <g id="matplotlib.axis_1">
    <g id="xtick_1">
     <g id="line2d_1">
      <defs>
       <path d="M 0 0 
L 0 3.5 
" id="md24bddb81c" style="stroke:#000000;stroke-width:0.8;"/>
      </defs>
      <g>
       <use style="stroke:#000000;stroke-width:0.8;" x="105.347102" xlink:href="#md24bddb81c" y="351.5175"/>
      </g>
     </g>
     <g id="text_1">
      <!-- SUPBs -->
      <g transform="translate(89.463509 366.115937)scale(0.1 -0.1)">
       <defs>
        <path d="M 3425 4513 
L 3425 3897 
Q 3066 4069 2747 4153 
Q 2428 4238 2131 4238 
Q 1616 4238 1336 4038 
Q 1056 3838 1056 3469 
Q 1056 3159 1242 3001 
Q 1428 2844 1947 2747 
L 2328 2669 
Q 3034 2534 3370 2195 
Q 3706 1856 3706 1288 
Q 3706 609 3251 259 
Q 2797 -91 1919 -91 
Q 1588 -91 1214 -16 
Q 841 59 441 206 
L 441 856 
Q 825 641 1194 531 
Q 1563 422 1919 422 
Q 2459 422 2753 634 
Q 3047 847 3047 1241 
Q 3047 1584 2836 1778 
Q 2625 1972 2144 2069 
L 1759 2144 
Q 1053 2284 737 2584 
Q 422 2884 422 3419 
Q 422 4038 858 4394 
Q 1294 4750 2059 4750 
Q 2388 4750 2728 4690 
Q 3069 4631 3425 4513 
z
" id="DejaVuSans-53" transform="scale(0.015625)"/>
        <path d="M 556 4666 
L 1191 4666 
L 1191 1831 
Q 1191 1081 1462 751 
Q 1734 422 2344 422 
Q 2950 422 3222 751 
Q 3494 1081 3494 1831 
L 3494 4666 
L 4128 4666 
L 4128 1753 
Q 4128 841 3676 375 
Q 3225 -91 2344 -91 
Q 1459 -91 1007 375 
Q 556 841 556 1753 
L 556 4666 
z
" id="DejaVuSans-55" transform="scale(0.015625)"/>
        <path d="M 1259 4147 
L 1259 2394 
L 2053 2394 
Q 2494 2394 2734 2622 
Q 2975 2850 2975 3272 
Q 2975 3691 2734 3919 
Q 2494 4147 2053 4147 
L 1259 4147 
z
M 628 4666 
L 2053 4666 
Q 2838 4666 3239 4311 
Q 3641 3956 3641 3272 
Q 3641 2581 3239 2228 
Q 2838 1875 2053 1875 
L 1259 1875 
L 1259 0 
L 628 0 
L 628 4666 
z
" id="DejaVuSans-50" transform="scale(0.015625)"/>
        <path d="M 1259 2228 
L 1259 519 
L 2272 519 
Q 2781 519 3026 730 
Q 3272 941 3272 1375 
Q 3272 1813 3026 2020 
Q 2781 2228 2272 2228 
L 1259 2228 
z
M 1259 4147 
L 1259 2741 
L 2194 2741 
Q 2656 2741 2882 2914 
Q 3109 3088 3109 3444 
Q 3109 3797 2882 3972 
Q 2656 4147 2194 4147 
L 1259 4147 
z
M 628 4666 
L 2241 4666 
Q 2963 4666 3353 4366 
Q 3744 4066 3744 3513 
Q 3744 3084 3544 2831 
Q 3344 2578 2956 2516 
Q 3422 2416 3680 2098 
Q 3938 1781 3938 1306 
Q 3938 681 3513 340 
Q 3088 0 2303 0 
L 628 0 
L 628 4666 
z
" id="DejaVuSans-42" transform="scale(0.015625)"/>
        <path d="M 2834 3397 
L 2834 2853 
Q 2591 2978 2328 3040 
Q 2066 3103 1784 3103 
Q 1356 3103 1142 2972 
Q 928 2841 928 2578 
Q 928 2378 1081 2264 
Q 1234 2150 1697 2047 
L 1894 2003 
Q 2506 1872 2764 1633 
Q 3022 1394 3022 966 
Q 3022 478 2636 193 
Q 2250 -91 1575 -91 
Q 1294 -91 989 -36 
Q 684 19 347 128 
L 347 722 
Q 666 556 975 473 
Q 1284 391 1588 391 
Q 1994 391 2212 530 
Q 2431 669 2431 922 
Q 2431 1156 2273 1281 
Q 2116 1406 1581 1522 
L 1381 1569 
Q 847 1681 609 1914 
Q 372 2147 372 2553 
Q 372 3047 722 3315 
Q 1072 3584 1716 3584 
Q 2034 3584 2315 3537 
Q 2597 3491 2834 3397 
z
" id="DejaVuSans-73" transform="scale(0.015625)"/>
       </defs>
       <use xlink:href="#DejaVuSans-53"/>
       <use x="63.476562" xlink:href="#DejaVuSans-55"/>
       <use x="136.669922" xlink:href="#DejaVuSans-50"/>
       <use x="196.972656" xlink:href="#DejaVuSans-42"/>
       <use x="265.576172" xlink:href="#DejaVuSans-73"/>
      </g>
     </g>
    </g>
    <g id="xtick_2">
     <g id="line2d_2">
      <g>
       <use style="stroke:#000000;stroke-width:0.8;" x="267.674375" xlink:href="#md24bddb81c" y="351.5175"/>
      </g>
     </g>
     <g id="text_2">
      <!-- Bag for Life -->
      <g transform="translate(238.940781 366.115937)scale(0.1 -0.1)">
       <defs>
        <path d="M 2194 1759 
Q 1497 1759 1228 1600 
Q 959 1441 959 1056 
Q 959 750 1161 570 
Q 1363 391 1709 391 
Q 2188 391 2477 730 
Q 2766 1069 2766 1631 
L 2766 1759 
L 2194 1759 
z
M 3341 1997 
L 3341 0 
L 2766 0 
L 2766 531 
Q 2569 213 2275 61 
Q 1981 -91 1556 -91 
Q 1019 -91 701 211 
Q 384 513 384 1019 
Q 384 1609 779 1909 
Q 1175 2209 1959 2209 
L 2766 2209 
L 2766 2266 
Q 2766 2663 2505 2880 
Q 2244 3097 1772 3097 
Q 1472 3097 1187 3025 
Q 903 2953 641 2809 
L 641 3341 
Q 956 3463 1253 3523 
Q 1550 3584 1831 3584 
Q 2591 3584 2966 3190 
Q 3341 2797 3341 1997 
z
" id="DejaVuSans-61" transform="scale(0.015625)"/>
        <path d="M 2906 1791 
Q 2906 2416 2648 2759 
Q 2391 3103 1925 3103 
Q 1463 3103 1205 2759 
Q 947 2416 947 1791 
Q 947 1169 1205 825 
Q 1463 481 1925 481 
Q 2391 481 2648 825 
Q 2906 1169 2906 1791 
z
M 3481 434 
Q 3481 -459 3084 -895 
Q 2688 -1331 1869 -1331 
Q 1566 -1331 1297 -1286 
Q 1028 -1241 775 -1147 
L 775 -588 
Q 1028 -725 1275 -790 
Q 1522 -856 1778 -856 
Q 2344 -856 2625 -561 
Q 2906 -266 2906 331 
L 2906 616 
Q 2728 306 2450 153 
Q 2172 0 1784 0 
Q 1141 0 747 490 
Q 353 981 353 1791 
Q 353 2603 747 3093 
Q 1141 3584 1784 3584 
Q 2172 3584 2450 3431 
Q 2728 3278 2906 2969 
L 2906 3500 
L 3481 3500 
L 3481 434 
z
" id="DejaVuSans-67" transform="scale(0.015625)"/>
        <path id="DejaVuSans-20" transform="scale(0.015625)"/>
        <path d="M 2375 4863 
L 2375 4384 
L 1825 4384 
Q 1516 4384 1395 4259 
Q 1275 4134 1275 3809 
L 1275 3500 
L 2222 3500 
L 2222 3053 
L 1275 3053 
L 1275 0 
L 697 0 
L 697 3053 
L 147 3053 
L 147 3500 
L 697 3500 
L 697 3744 
Q 697 4328 969 4595 
Q 1241 4863 1831 4863 
L 2375 4863 
z
" id="DejaVuSans-66" transform="scale(0.015625)"/>
        <path d="M 1959 3097 
Q 1497 3097 1228 2736 
Q 959 2375 959 1747 
Q 959 1119 1226 758 
Q 1494 397 1959 397 
Q 2419 397 2687 759 
Q 2956 1122 2956 1747 
Q 2956 2369 2687 2733 
Q 2419 3097 1959 3097 
z
M 1959 3584 
Q 2709 3584 3137 3096 
Q 3566 2609 3566 1747 
Q 3566 888 3137 398 
Q 2709 -91 1959 -91 
Q 1206 -91 779 398 
Q 353 888 353 1747 
Q 353 2609 779 3096 
Q 1206 3584 1959 3584 
z
" id="DejaVuSans-6f" transform="scale(0.015625)"/>
        <path d="M 2631 2963 
Q 2534 3019 2420 3045 
Q 2306 3072 2169 3072 
Q 1681 3072 1420 2755 
Q 1159 2438 1159 1844 
L 1159 0 
L 581 0 
L 581 3500 
L 1159 3500 
L 1159 2956 
Q 1341 3275 1631 3429 
Q 1922 3584 2338 3584 
Q 2397 3584 2469 3576 
Q 2541 3569 2628 3553 
L 2631 2963 
z
" id="DejaVuSans-72" transform="scale(0.015625)"/>
        <path d="M 628 4666 
L 1259 4666 
L 1259 531 
L 3531 531 
L 3531 0 
L 628 0 
L 628 4666 
z
" id="DejaVuSans-4c" transform="scale(0.015625)"/>
        <path d="M 603 3500 
L 1178 3500 
L 1178 0 
L 603 0 
L 603 3500 
z
M 603 4863 
L 1178 4863 
L 1178 4134 
L 603 4134 
L 603 4863 
z
" id="DejaVuSans-69" transform="scale(0.015625)"/>
        <path d="M 3597 1894 
L 3597 1613 
L 953 1613 
Q 991 1019 1311 708 
Q 1631 397 2203 397 
Q 2534 397 2845 478 
Q 3156 559 3463 722 
L 3463 178 
Q 3153 47 2828 -22 
Q 2503 -91 2169 -91 
Q 1331 -91 842 396 
Q 353 884 353 1716 
Q 353 2575 817 3079 
Q 1281 3584 2069 3584 
Q 2775 3584 3186 3129 
Q 3597 2675 3597 1894 
z
M 3022 2063 
Q 3016 2534 2758 2815 
Q 2500 3097 2075 3097 
Q 1594 3097 1305 2825 
Q 1016 2553 972 2059 
L 3022 2063 
z
" id="DejaVuSans-65" transform="scale(0.015625)"/>
       </defs>
       <use xlink:href="#DejaVuSans-42"/>
       <use x="68.603516" xlink:href="#DejaVuSans-61"/>
       <use x="129.882812" xlink:href="#DejaVuSans-67"/>
       <use x="193.359375" xlink:href="#DejaVuSans-20"/>
       <use x="225.146484" xlink:href="#DejaVuSans-66"/>
       <use x="260.351562" xlink:href="#DejaVuSans-6f"/>
       <use x="321.533203" xlink:href="#DejaVuSans-72"/>
       <use x="362.646484" xlink:href="#DejaVuSans-20"/>
       <use x="394.433594" xlink:href="#DejaVuSans-4c"/>
       <use x="450.146484" xlink:href="#DejaVuSans-69"/>
       <use x="477.929688" xlink:href="#DejaVuSans-66"/>
       <use x="513.134766" xlink:href="#DejaVuSans-65"/>
      </g>
     </g>
    </g>
    <g id="xtick_3">
     <g id="line2d_3">
      <g>
       <use style="stroke:#000000;stroke-width:0.8;" x="430.001648" xlink:href="#md24bddb81c" y="351.5175"/>
      </g>
     </g>
     <g id="text_3">
      <!-- All Reusable -->
      <g transform="translate(399.411023 366.115937)scale(0.1 -0.1)">
       <defs>
        <path d="M 2188 4044 
L 1331 1722 
L 3047 1722 
L 2188 4044 
z
M 1831 4666 
L 2547 4666 
L 4325 0 
L 3669 0 
L 3244 1197 
L 1141 1197 
L 716 0 
L 50 0 
L 1831 4666 
z
" id="DejaVuSans-41" transform="scale(0.015625)"/>
        <path d="M 603 4863 
L 1178 4863 
L 1178 0 
L 603 0 
L 603 4863 
z
" id="DejaVuSans-6c" transform="scale(0.015625)"/>
        <path d="M 2841 2188 
Q 3044 2119 3236 1894 
Q 3428 1669 3622 1275 
L 4263 0 
L 3584 0 
L 2988 1197 
Q 2756 1666 2539 1819 
Q 2322 1972 1947 1972 
L 1259 1972 
L 1259 0 
L 628 0 
L 628 4666 
L 2053 4666 
Q 2853 4666 3247 4331 
Q 3641 3997 3641 3322 
Q 3641 2881 3436 2590 
Q 3231 2300 2841 2188 
z
M 1259 4147 
L 1259 2491 
L 2053 2491 
Q 2509 2491 2742 2702 
Q 2975 2913 2975 3322 
Q 2975 3731 2742 3939 
Q 2509 4147 2053 4147 
L 1259 4147 
z
" id="DejaVuSans-52" transform="scale(0.015625)"/>
        <path d="M 544 1381 
L 544 3500 
L 1119 3500 
L 1119 1403 
Q 1119 906 1312 657 
Q 1506 409 1894 409 
Q 2359 409 2629 706 
Q 2900 1003 2900 1516 
L 2900 3500 
L 3475 3500 
L 3475 0 
L 2900 0 
L 2900 538 
Q 2691 219 2414 64 
Q 2138 -91 1772 -91 
Q 1169 -91 856 284 
Q 544 659 544 1381 
z
M 1991 3584 
L 1991 3584 
z
" id="DejaVuSans-75" transform="scale(0.015625)"/>
        <path d="M 3116 1747 
Q 3116 2381 2855 2742 
Q 2594 3103 2138 3103 
Q 1681 3103 1420 2742 
Q 1159 2381 1159 1747 
Q 1159 1113 1420 752 
Q 1681 391 2138 391 
Q 2594 391 2855 752 
Q 3116 1113 3116 1747 
z
M 1159 2969 
Q 1341 3281 1617 3432 
Q 1894 3584 2278 3584 
Q 2916 3584 3314 3078 
Q 3713 2572 3713 1747 
Q 3713 922 3314 415 
Q 2916 -91 2278 -91 
Q 1894 -91 1617 61 
Q 1341 213 1159 525 
L 1159 0 
L 581 0 
L 581 4863 
L 1159 4863 
L 1159 2969 
z
" id="DejaVuSans-62" transform="scale(0.015625)"/>
       </defs>
       <use xlink:href="#DejaVuSans-41"/>
       <use x="68.408203" xlink:href="#DejaVuSans-6c"/>
       <use x="96.191406" xlink:href="#DejaVuSans-6c"/>
       <use x="123.974609" xlink:href="#DejaVuSans-20"/>
       <use x="155.761719" xlink:href="#DejaVuSans-52"/>
       <use x="220.744141" xlink:href="#DejaVuSans-65"/>
       <use x="282.267578" xlink:href="#DejaVuSans-75"/>
       <use x="345.646484" xlink:href="#DejaVuSans-73"/>
       <use x="397.746094" xlink:href="#DejaVuSans-61"/>
       <use x="459.025391" xlink:href="#DejaVuSans-62"/>
       <use x="522.501953" xlink:href="#DejaVuSans-6c"/>
       <use x="550.285156" xlink:href="#DejaVuSans-65"/>
      </g>
     </g>
    </g>
    <g id="text_4">
     <!-- Bag types -->
     <g transform="translate(232.628437 382.833438)scale(0.14 -0.14)">
      <defs>
       <path d="M 1172 4494 
L 1172 3500 
L 2356 3500 
L 2356 3053 
L 1172 3053 
L 1172 1153 
Q 1172 725 1289 603 
Q 1406 481 1766 481 
L 2356 481 
L 2356 0 
L 1766 0 
Q 1100 0 847 248 
Q 594 497 594 1153 
L 594 3053 
L 172 3053 
L 172 3500 
L 594 3500 
L 594 4494 
L 1172 4494 
z
" id="DejaVuSans-74" transform="scale(0.015625)"/>
       <path d="M 2059 -325 
Q 1816 -950 1584 -1140 
Q 1353 -1331 966 -1331 
L 506 -1331 
L 506 -850 
L 844 -850 
Q 1081 -850 1212 -737 
Q 1344 -625 1503 -206 
L 1606 56 
L 191 3500 
L 800 3500 
L 1894 763 
L 2988 3500 
L 3597 3500 
L 2059 -325 
z
" id="DejaVuSans-79" transform="scale(0.015625)"/>
       <path d="M 1159 525 
L 1159 -1331 
L 581 -1331 
L 581 3500 
L 1159 3500 
L 1159 2969 
Q 1341 3281 1617 3432 
Q 1894 3584 2278 3584 
Q 2916 3584 3314 3078 
Q 3713 2572 3713 1747 
Q 3713 922 3314 415 
Q 2916 -91 2278 -91 
Q 1894 -91 1617 61 
Q 1341 213 1159 525 
z
M 3116 1747 
Q 3116 2381 2855 2742 
Q 2594 3103 2138 3103 
Q 1681 3103 1420 2742 
Q 1159 2381 1159 1747 
Q 1159 1113 1420 752 
Q 1681 391 2138 391 
Q 2594 391 2855 752 
Q 3116 1113 3116 1747 
z
" id="DejaVuSans-70" transform="scale(0.015625)"/>
      </defs>
      <use xlink:href="#DejaVuSans-42"/>
      <use x="68.603516" xlink:href="#DejaVuSans-61"/>
      <use x="129.882812" xlink:href="#DejaVuSans-67"/>
      <use x="193.359375" xlink:href="#DejaVuSans-20"/>
      <use x="225.146484" xlink:href="#DejaVuSans-74"/>
      <use x="264.355469" xlink:href="#DejaVuSans-79"/>
      <use x="323.535156" xlink:href="#DejaVuSans-70"/>
      <use x="387.011719" xlink:href="#DejaVuSans-65"/>
      <use x="448.535156" xlink:href="#DejaVuSans-73"/>
     </g>
    </g>
   </g>
   <g id="matplotlib.axis_2">
    <g id="ytick_1">
     <g id="line2d_4">
      <path clip-path="url(#pa62b48cec2)" d="M 44.474375 336.692045 
L 490.874375 336.692045 
" style="fill:none;stroke:#bfbfbf;stroke-dasharray:2.96,1.28;stroke-dashoffset:0;stroke-width:0.8;"/>
     </g>
     <g id="line2d_5">
      <defs>
       <path d="M 0 0 
L -3.5 0 
" id="m33a5566e9d" style="stroke:#000000;stroke-width:0.8;"/>
      </defs>
      <g>
       <use style="stroke:#000000;stroke-width:0.8;" x="44.474375" xlink:href="#m33a5566e9d" y="336.692045"/>
      </g>
     </g>
     <g id="text_5">
      <!-- 0 -->
      <g transform="translate(31.111875 340.491264)scale(0.1 -0.1)">
       <defs>
        <path d="M 2034 4250 
Q 1547 4250 1301 3770 
Q 1056 3291 1056 2328 
Q 1056 1369 1301 889 
Q 1547 409 2034 409 
Q 2525 409 2770 889 
Q 3016 1369 3016 2328 
Q 3016 3291 2770 3770 
Q 2525 4250 2034 4250 
z
M 2034 4750 
Q 2819 4750 3233 4129 
Q 3647 3509 3647 2328 
Q 3647 1150 3233 529 
Q 2819 -91 2034 -91 
Q 1250 -91 836 529 
Q 422 1150 422 2328 
Q 422 3509 836 4129 
Q 1250 4750 2034 4750 
z
" id="DejaVuSans-30" transform="scale(0.015625)"/>
       </defs>
       <use xlink:href="#DejaVuSans-30"/>
      </g>
     </g>
    </g>
    <g id="ytick_2">
     <g id="line2d_6">
      <path clip-path="url(#pa62b48cec2)" d="M 44.474375 303.746591 
L 490.874375 303.746591 
" style="fill:none;stroke:#bfbfbf;stroke-dasharray:2.96,1.28;stroke-dashoffset:0;stroke-width:0.8;"/>
     </g>
     <g id="line2d_7">
      <g>
       <use style="stroke:#000000;stroke-width:0.8;" x="44.474375" xlink:href="#m33a5566e9d" y="303.746591"/>
      </g>
     </g>
     <g id="text_6">
      <!-- 2 -->
      <g transform="translate(31.111875 307.54581)scale(0.1 -0.1)">
       <defs>
        <path d="M 1228 531 
L 3431 531 
L 3431 0 
L 469 0 
L 469 531 
Q 828 903 1448 1529 
Q 2069 2156 2228 2338 
Q 2531 2678 2651 2914 
Q 2772 3150 2772 3378 
Q 2772 3750 2511 3984 
Q 2250 4219 1831 4219 
Q 1534 4219 1204 4116 
Q 875 4013 500 3803 
L 500 4441 
Q 881 4594 1212 4672 
Q 1544 4750 1819 4750 
Q 2544 4750 2975 4387 
Q 3406 4025 3406 3419 
Q 3406 3131 3298 2873 
Q 3191 2616 2906 2266 
Q 2828 2175 2409 1742 
Q 1991 1309 1228 531 
z
" id="DejaVuSans-32" transform="scale(0.015625)"/>
       </defs>
       <use xlink:href="#DejaVuSans-32"/>
      </g>
     </g>
    </g>
    <g id="ytick_3">
     <g id="line2d_8">
      <path clip-path="url(#pa62b48cec2)" d="M 44.474375 270.801136 
L 490.874375 270.801136 
" style="fill:none;stroke:#bfbfbf;stroke-dasharray:2.96,1.28;stroke-dashoffset:0;stroke-width:0.8;"/>
     </g>
     <g id="line2d_9">
      <g>
       <use style="stroke:#000000;stroke-width:0.8;" x="44.474375" xlink:href="#m33a5566e9d" y="270.801136"/>
      </g>
     </g>
     <g id="text_7">
      <!-- 4 -->
      <g transform="translate(31.111875 274.600355)scale(0.1 -0.1)">
       <defs>
        <path d="M 2419 4116 
L 825 1625 
L 2419 1625 
L 2419 4116 
z
M 2253 4666 
L 3047 4666 
L 3047 1625 
L 3713 1625 
L 3713 1100 
L 3047 1100 
L 3047 0 
L 2419 0 
L 2419 1100 
L 313 1100 
L 313 1709 
L 2253 4666 
z
" id="DejaVuSans-34" transform="scale(0.015625)"/>
       </defs>
       <use xlink:href="#DejaVuSans-34"/>
      </g>
     </g>
    </g>
    <g id="ytick_4">
     <g id="line2d_10">
      <path clip-path="url(#pa62b48cec2)" d="M 44.474375 237.855682 
L 490.874375 237.855682 
" style="fill:none;stroke:#bfbfbf;stroke-dasharray:2.96,1.28;stroke-dashoffset:0;stroke-width:0.8;"/>
     </g>
     <g id="line2d_11">
      <g>
       <use style="stroke:#000000;stroke-width:0.8;" x="44.474375" xlink:href="#m33a5566e9d" y="237.855682"/>
      </g>
     </g>
     <g id="text_8">
      <!-- 6 -->
      <g transform="translate(31.111875 241.654901)scale(0.1 -0.1)">
       <defs>
        <path d="M 2113 2584 
Q 1688 2584 1439 2293 
Q 1191 2003 1191 1497 
Q 1191 994 1439 701 
Q 1688 409 2113 409 
Q 2538 409 2786 701 
Q 3034 994 3034 1497 
Q 3034 2003 2786 2293 
Q 2538 2584 2113 2584 
z
M 3366 4563 
L 3366 3988 
Q 3128 4100 2886 4159 
Q 2644 4219 2406 4219 
Q 1781 4219 1451 3797 
Q 1122 3375 1075 2522 
Q 1259 2794 1537 2939 
Q 1816 3084 2150 3084 
Q 2853 3084 3261 2657 
Q 3669 2231 3669 1497 
Q 3669 778 3244 343 
Q 2819 -91 2113 -91 
Q 1303 -91 875 529 
Q 447 1150 447 2328 
Q 447 3434 972 4092 
Q 1497 4750 2381 4750 
Q 2619 4750 2861 4703 
Q 3103 4656 3366 4563 
z
" id="DejaVuSans-36" transform="scale(0.015625)"/>
       </defs>
       <use xlink:href="#DejaVuSans-36"/>
      </g>
     </g>
    </g>
    <g id="ytick_5">
     <g id="line2d_12">
      <path clip-path="url(#pa62b48cec2)" d="M 44.474375 204.910227 
L 490.874375 204.910227 
" style="fill:none;stroke:#bfbfbf;stroke-dasharray:2.96,1.28;stroke-dashoffset:0;stroke-width:0.8;"/>
     </g>
     <g id="line2d_13">
      <g>
       <use style="stroke:#000000;stroke-width:0.8;" x="44.474375" xlink:href="#m33a5566e9d" y="204.910227"/>
      </g>
     </g>
     <g id="text_9">
      <!-- 8 -->
      <g transform="translate(31.111875 208.709446)scale(0.1 -0.1)">
       <defs>
        <path d="M 2034 2216 
Q 1584 2216 1326 1975 
Q 1069 1734 1069 1313 
Q 1069 891 1326 650 
Q 1584 409 2034 409 
Q 2484 409 2743 651 
Q 3003 894 3003 1313 
Q 3003 1734 2745 1975 
Q 2488 2216 2034 2216 
z
M 1403 2484 
Q 997 2584 770 2862 
Q 544 3141 544 3541 
Q 544 4100 942 4425 
Q 1341 4750 2034 4750 
Q 2731 4750 3128 4425 
Q 3525 4100 3525 3541 
Q 3525 3141 3298 2862 
Q 3072 2584 2669 2484 
Q 3125 2378 3379 2068 
Q 3634 1759 3634 1313 
Q 3634 634 3220 271 
Q 2806 -91 2034 -91 
Q 1263 -91 848 271 
Q 434 634 434 1313 
Q 434 1759 690 2068 
Q 947 2378 1403 2484 
z
M 1172 3481 
Q 1172 3119 1398 2916 
Q 1625 2713 2034 2713 
Q 2441 2713 2670 2916 
Q 2900 3119 2900 3481 
Q 2900 3844 2670 4047 
Q 2441 4250 2034 4250 
Q 1625 4250 1398 4047 
Q 1172 3844 1172 3481 
z
" id="DejaVuSans-38" transform="scale(0.015625)"/>
       </defs>
       <use xlink:href="#DejaVuSans-38"/>
      </g>
     </g>
    </g>
    <g id="ytick_6">
     <g id="line2d_14">
      <path clip-path="url(#pa62b48cec2)" d="M 44.474375 171.964773 
L 490.874375 171.964773 
" style="fill:none;stroke:#bfbfbf;stroke-dasharray:2.96,1.28;stroke-dashoffset:0;stroke-width:0.8;"/>
     </g>
     <g id="line2d_15">
      <g>
       <use style="stroke:#000000;stroke-width:0.8;" x="44.474375" xlink:href="#m33a5566e9d" y="171.964773"/>
      </g>
     </g>
     <g id="text_10">
      <!-- 10 -->
      <g transform="translate(24.749375 175.763991)scale(0.1 -0.1)">
       <defs>
        <path d="M 794 531 
L 1825 531 
L 1825 4091 
L 703 3866 
L 703 4441 
L 1819 4666 
L 2450 4666 
L 2450 531 
L 3481 531 
L 3481 0 
L 794 0 
L 794 531 
z
" id="DejaVuSans-31" transform="scale(0.015625)"/>
       </defs>
       <use xlink:href="#DejaVuSans-31"/>
       <use x="63.623047" xlink:href="#DejaVuSans-30"/>
      </g>
     </g>
    </g>
    <g id="ytick_7">
     <g id="line2d_16">
      <path clip-path="url(#pa62b48cec2)" d="M 44.474375 139.019318 
L 490.874375 139.019318 
" style="fill:none;stroke:#bfbfbf;stroke-dasharray:2.96,1.28;stroke-dashoffset:0;stroke-width:0.8;"/>
     </g>
     <g id="line2d_17">
      <g>
       <use style="stroke:#000000;stroke-width:0.8;" x="44.474375" xlink:href="#m33a5566e9d" y="139.019318"/>
      </g>
     </g>
     <g id="text_11">
      <!-- 12 -->
      <g transform="translate(24.749375 142.818537)scale(0.1 -0.1)">
       <use xlink:href="#DejaVuSans-31"/>
       <use x="63.623047" xlink:href="#DejaVuSans-32"/>
      </g>
     </g>
    </g>
    <g id="ytick_8">
     <g id="line2d_18">
      <path clip-path="url(#pa62b48cec2)" d="M 44.474375 106.073864 
L 490.874375 106.073864 
" style="fill:none;stroke:#bfbfbf;stroke-dasharray:2.96,1.28;stroke-dashoffset:0;stroke-width:0.8;"/>
     </g>
     <g id="line2d_19">
      <g>
       <use style="stroke:#000000;stroke-width:0.8;" x="44.474375" xlink:href="#m33a5566e9d" y="106.073864"/>
      </g>
     </g>
     <g id="text_12">
      <!-- 14 -->
      <g transform="translate(24.749375 109.873082)scale(0.1 -0.1)">
       <use xlink:href="#DejaVuSans-31"/>
       <use x="63.623047" xlink:href="#DejaVuSans-34"/>
      </g>
     </g>
    </g>
    <g id="ytick_9">
     <g id="line2d_20">
      <path clip-path="url(#pa62b48cec2)" d="M 44.474375 73.128409 
L 490.874375 73.128409 
" style="fill:none;stroke:#bfbfbf;stroke-dasharray:2.96,1.28;stroke-dashoffset:0;stroke-width:0.8;"/>
     </g>
     <g id="line2d_21">
      <g>
       <use style="stroke:#000000;stroke-width:0.8;" x="44.474375" xlink:href="#m33a5566e9d" y="73.128409"/>
      </g>
     </g>
     <g id="text_13">
      <!-- 16 -->
      <g transform="translate(24.749375 76.927628)scale(0.1 -0.1)">
       <use xlink:href="#DejaVuSans-31"/>
       <use x="63.623047" xlink:href="#DejaVuSans-36"/>
      </g>
     </g>
    </g>
    <g id="ytick_10">
     <g id="line2d_22">
      <path clip-path="url(#pa62b48cec2)" d="M 44.474375 40.182955 
L 490.874375 40.182955 
" style="fill:none;stroke:#bfbfbf;stroke-dasharray:2.96,1.28;stroke-dashoffset:0;stroke-width:0.8;"/>
     </g>
     <g id="line2d_23">
      <g>
       <use style="stroke:#000000;stroke-width:0.8;" x="44.474375" xlink:href="#m33a5566e9d" y="40.182955"/>
      </g>
     </g>
     <g id="text_14">
      <!-- 18 -->
      <g transform="translate(24.749375 43.982173)scale(0.1 -0.1)">
       <use xlink:href="#DejaVuSans-31"/>
       <use x="63.623047" xlink:href="#DejaVuSans-38"/>
      </g>
     </g>
    </g>
    <g id="text_15">
     <!-- Number of Bags -->
     <g transform="translate(17.837813 244.937344)rotate(-90)scale(0.14 -0.14)">
      <defs>
       <path d="M 628 4666 
L 1478 4666 
L 3547 763 
L 3547 4666 
L 4159 4666 
L 4159 0 
L 3309 0 
L 1241 3903 
L 1241 0 
L 628 0 
L 628 4666 
z
" id="DejaVuSans-4e" transform="scale(0.015625)"/>
       <path d="M 3328 2828 
Q 3544 3216 3844 3400 
Q 4144 3584 4550 3584 
Q 5097 3584 5394 3201 
Q 5691 2819 5691 2113 
L 5691 0 
L 5113 0 
L 5113 2094 
Q 5113 2597 4934 2840 
Q 4756 3084 4391 3084 
Q 3944 3084 3684 2787 
Q 3425 2491 3425 1978 
L 3425 0 
L 2847 0 
L 2847 2094 
Q 2847 2600 2669 2842 
Q 2491 3084 2119 3084 
Q 1678 3084 1418 2786 
Q 1159 2488 1159 1978 
L 1159 0 
L 581 0 
L 581 3500 
L 1159 3500 
L 1159 2956 
Q 1356 3278 1631 3431 
Q 1906 3584 2284 3584 
Q 2666 3584 2933 3390 
Q 3200 3197 3328 2828 
z
" id="DejaVuSans-6d" transform="scale(0.015625)"/>
      </defs>
      <use xlink:href="#DejaVuSans-4e"/>
      <use x="74.804688" xlink:href="#DejaVuSans-75"/>
      <use x="138.183594" xlink:href="#DejaVuSans-6d"/>
      <use x="235.595703" xlink:href="#DejaVuSans-62"/>
      <use x="299.072266" xlink:href="#DejaVuSans-65"/>
      <use x="360.595703" xlink:href="#DejaVuSans-72"/>
      <use x="401.708984" xlink:href="#DejaVuSans-20"/>
      <use x="433.496094" xlink:href="#DejaVuSans-6f"/>
      <use x="494.677734" xlink:href="#DejaVuSans-66"/>
      <use x="529.882812" xlink:href="#DejaVuSans-20"/>
      <use x="561.669922" xlink:href="#DejaVuSans-42"/>
      <use x="630.273438" xlink:href="#DejaVuSans-61"/>
      <use x="691.552734" xlink:href="#DejaVuSans-67"/>
      <use x="755.029297" xlink:href="#DejaVuSans-73"/>
     </g>
    </g>
   </g>
   <g id="LineCollection_1">
    <path clip-path="url(#pa62b48cec2)" d="M 85.056193 139.019318 
L 125.638011 139.019318 
" style="fill:none;stroke:#1f77b4;stroke-width:1.5;"/>
    <path clip-path="url(#pa62b48cec2)" d="M 247.383466 122.546591 
L 287.965284 122.546591 
" style="fill:none;stroke:#1f77b4;stroke-width:1.5;"/>
    <path clip-path="url(#pa62b48cec2)" d="M 409.710739 40.182955 
L 450.292557 40.182955 
" style="fill:none;stroke:#1f77b4;stroke-width:1.5;"/>
   </g>
   <g id="LineCollection_2">
    <path clip-path="url(#pa62b48cec2)" d="M 85.056193 336.692045 
L 125.638011 336.692045 
" style="fill:none;stroke:#1f77b4;stroke-width:1.5;"/>
    <path clip-path="url(#pa62b48cec2)" d="M 247.383466 336.692045 
L 287.965284 336.692045 
" style="fill:none;stroke:#1f77b4;stroke-width:1.5;"/>
    <path clip-path="url(#pa62b48cec2)" d="M 409.710739 336.692045 
L 450.292557 336.692045 
" style="fill:none;stroke:#1f77b4;stroke-width:1.5;"/>
   </g>
   <g id="LineCollection_3">
    <path clip-path="url(#pa62b48cec2)" d="M 105.347102 336.692045 
L 105.347102 139.019318 
" style="fill:none;stroke:#1f77b4;stroke-width:1.5;"/>
    <path clip-path="url(#pa62b48cec2)" d="M 267.674375 336.692045 
L 267.674375 122.546591 
" style="fill:none;stroke:#1f77b4;stroke-width:1.5;"/>
    <path clip-path="url(#pa62b48cec2)" d="M 430.001648 336.692045 
L 430.001648 40.182955 
" style="fill:none;stroke:#1f77b4;stroke-width:1.5;"/>
   </g>
   <g id="patch_3">
    <path d="M 44.474375 351.5175 
L 44.474375 25.3575 
" style="fill:none;stroke:#000000;stroke-linecap:square;stroke-linejoin:miter;stroke-width:0.8;"/>
   </g>
   <g id="patch_4">
    <path d="M 490.874375 351.5175 
L 490.874375 25.3575 
" style="fill:none;stroke:#000000;stroke-linecap:square;stroke-linejoin:miter;stroke-width:0.8;"/>
   </g>
   <g id="patch_5">
    <path d="M 44.474375 351.5175 
L 490.874375 351.5175 
" style="fill:none;stroke:#000000;stroke-linecap:square;stroke-linejoin:miter;stroke-width:0.8;"/>
   </g>
   <g id="patch_6">
    <path d="M 44.474375 25.3575 
L 490.874375 25.3575 
" style="fill:none;stroke:#000000;stroke-linecap:square;stroke-linejoin:miter;stroke-width:0.8;"/>
   </g>
   <g id="text_16">
    <!-- Distribution of Number of Bags by Type -->
    <g transform="translate(110.365625 19.3575)scale(0.16 -0.16)">
     <defs>
      <path d="M 1259 4147 
L 1259 519 
L 2022 519 
Q 2988 519 3436 956 
Q 3884 1394 3884 2338 
Q 3884 3275 3436 3711 
Q 2988 4147 2022 4147 
L 1259 4147 
z
M 628 4666 
L 1925 4666 
Q 3281 4666 3915 4102 
Q 4550 3538 4550 2338 
Q 4550 1131 3912 565 
Q 3275 0 1925 0 
L 628 0 
L 628 4666 
z
" id="DejaVuSans-44" transform="scale(0.015625)"/>
      <path d="M 3513 2113 
L 3513 0 
L 2938 0 
L 2938 2094 
Q 2938 2591 2744 2837 
Q 2550 3084 2163 3084 
Q 1697 3084 1428 2787 
Q 1159 2491 1159 1978 
L 1159 0 
L 581 0 
L 581 3500 
L 1159 3500 
L 1159 2956 
Q 1366 3272 1645 3428 
Q 1925 3584 2291 3584 
Q 2894 3584 3203 3211 
Q 3513 2838 3513 2113 
z
" id="DejaVuSans-6e" transform="scale(0.015625)"/>
      <path d="M -19 4666 
L 3928 4666 
L 3928 4134 
L 2272 4134 
L 2272 0 
L 1638 0 
L 1638 4134 
L -19 4134 
L -19 4666 
z
" id="DejaVuSans-54" transform="scale(0.015625)"/>
     </defs>
     <use xlink:href="#DejaVuSans-44"/>
     <use x="77.001953" xlink:href="#DejaVuSans-69"/>
     <use x="104.785156" xlink:href="#DejaVuSans-73"/>
     <use x="156.884766" xlink:href="#DejaVuSans-74"/>
     <use x="196.09375" xlink:href="#DejaVuSans-72"/>
     <use x="237.207031" xlink:href="#DejaVuSans-69"/>
     <use x="264.990234" xlink:href="#DejaVuSans-62"/>
     <use x="328.466797" xlink:href="#DejaVuSans-75"/>
     <use x="391.845703" xlink:href="#DejaVuSans-74"/>
     <use x="431.054688" xlink:href="#DejaVuSans-69"/>
     <use x="458.837891" xlink:href="#DejaVuSans-6f"/>
     <use x="520.019531" xlink:href="#DejaVuSans-6e"/>
     <use x="583.398438" xlink:href="#DejaVuSans-20"/>
     <use x="615.185547" xlink:href="#DejaVuSans-6f"/>
     <use x="676.367188" xlink:href="#DejaVuSans-66"/>
     <use x="711.572266" xlink:href="#DejaVuSans-20"/>
     <use x="743.359375" xlink:href="#DejaVuSans-4e"/>
     <use x="818.164062" xlink:href="#DejaVuSans-75"/>
     <use x="881.542969" xlink:href="#DejaVuSans-6d"/>
     <use x="978.955078" xlink:href="#DejaVuSans-62"/>
     <use x="1042.431641" xlink:href="#DejaVuSans-65"/>
     <use x="1103.955078" xlink:href="#DejaVuSans-72"/>
     <use x="1145.068359" xlink:href="#DejaVuSans-20"/>
     <use x="1176.855469" xlink:href="#DejaVuSans-6f"/>
     <use x="1238.037109" xlink:href="#DejaVuSans-66"/>
     <use x="1273.242188" xlink:href="#DejaVuSans-20"/>
     <use x="1305.029297" xlink:href="#DejaVuSans-42"/>
     <use x="1373.632812" xlink:href="#DejaVuSans-61"/>
     <use x="1434.912109" xlink:href="#DejaVuSans-67"/>
     <use x="1498.388672" xlink:href="#DejaVuSans-73"/>
     <use x="1550.488281" xlink:href="#DejaVuSans-20"/>
     <use x="1582.275391" xlink:href="#DejaVuSans-62"/>
     <use x="1645.751953" xlink:href="#DejaVuSans-79"/>
     <use x="1704.931641" xlink:href="#DejaVuSans-20"/>
     <use x="1736.71875" xlink:href="#DejaVuSans-54"/>
     <use x="1782.177734" xlink:href="#DejaVuSans-79"/>
     <use x="1841.357422" xlink:href="#DejaVuSans-70"/>
     <use x="1904.833984" xlink:href="#DejaVuSans-65"/>
    </g>
   </g>
  </g>
 </g>
 <defs>
  <clipPath id="pa62b48cec2">
   <rect height="326.16" width="446.4" x="44.474375" y="25.3575"/>
  </clipPath>
 </defs>
</svg>
